<svg xmlns="http://www.w3.org/2000/svg" xmlns:xlink="http://www.w3.org/1999/xlink" contentStyleType="text/css" data-diagram-type="CLASS" height="926px" preserveAspectRatio="none" style="width:2600px;height:926px;background:#FFFFFF;" version="1.1" viewBox="0 0 2600 926" width="2600px" zoomAndPan="magnify"><defs/><g><!--cluster UI--><g class="cluster" data-entity="UI" data-source-line="8" data-uid="ent0002" id="cluster_UI"><rect fill="none" height="400" rx="2.5" ry="2.5" style="stroke:#000000;stroke-width:1.5;" width="320" x="1333" y="7"/><text fill="#000000" font-family="sans-serif" font-size="14" font-weight="bold" lengthAdjust="spacing" textLength="14" x="1486" y="22.1318">UI</text></g><!--cluster UI Facade--><g class="cluster" data-entity="UI Facade" data-source-line="18" data-uid="ent0007" id="cluster_UI Facade"><rect fill="none" height="102" rx="2.5" ry="2.5" style="stroke:#000000;stroke-width:1.5;" width="124" x="1810" y="155"/><text fill="#000000" font-family="sans-serif" font-size="14" font-weight="bold" lengthAdjust="spacing" textLength="66.1377" x="1838.9312" y="170.1318">UI Facade</text></g><!--cluster Controller--><g class="cluster" data-entity="Controller" data-source-line="25" data-uid="ent0009" id="cluster_Controller"><rect fill="none" height="102" rx="2.5" ry="2.5" style="stroke:#000000;stroke-width:1.5;" width="500" x="1773" y="305"/><text fill="#000000" font-family="sans-serif" font-size="14" font-weight="bold" lengthAdjust="spacing" textLength="66.8896" x="1989.5552" y="320.1318">Controller</text></g><!--cluster Service--><g class="cluster" data-entity="Service" data-source-line="34" data-uid="ent0013" id="cluster_Service"><rect fill="none" height="102" rx="2.5" ry="2.5" style="stroke:#000000;stroke-width:1.5;" width="599" x="1653" y="455"/><text fill="#000000" font-family="sans-serif" font-size="14" font-weight="bold" lengthAdjust="spacing" textLength="49.8203" x="1927.5898" y="470.1318">Service</text></g><!--cluster Domain--><g class="cluster" data-entity="Domain" data-source-line="44" data-uid="ent0018" id="cluster_Domain"><rect fill="none" height="102" rx="2.5" ry="2.5" style="stroke:#000000;stroke-width:1.5;" width="738" x="1856" y="723"/><text fill="#000000" font-family="sans-serif" font-size="14" font-weight="bold" lengthAdjust="spacing" textLength="51.3379" x="2199.3311" y="738.1318">Domain</text></g><!--cluster Persistence--><g class="cluster" data-entity="Persistence" data-source-line="57" data-uid="ent0025" id="cluster_Persistence"><rect fill="none" height="330" rx="2.5" ry="2.5" style="stroke:#000000;stroke-width:1.5;" width="603" x="7" y="590"/><text fill="#000000" font-family="sans-serif" font-size="14" font-weight="bold" lengthAdjust="spacing" textLength="78.6064" x="269.1968" y="605.1318">Persistence</text></g><!--cluster Infrastructure--><g class="cluster" data-entity="Infrastructure" data-source-line="73" data-uid="ent0034" id="cluster_Infrastructure"><rect fill="none" height="235" rx="2.5" ry="2.5" style="stroke:#000000;stroke-width:1.5;" width="888" x="755" y="590"/><text fill="#000000" font-family="sans-serif" font-size="14" font-weight="bold" lengthAdjust="spacing" textLength="91.0205" x="1153.4897" y="605.1318">Infrastructure</text></g><!--class BibliotecaApp--><g class="entity" data-entity="BibliotecaApp" data-source-line="9" data-uid="ent0003" id="entity_BibliotecaApp"><rect fill="#F1F1F1" height="32" rx="2.5" ry="2.5" style="stroke:#181818;stroke-width:0.5;" width="117.6133" x="1349.19" y="61"/><ellipse cx="1364.19" cy="77" fill="#ADD1B2" rx="11" ry="11" style="stroke:#181818;stroke-width:1;"/><path d="M1359.19,78.1563 C1359.19,80.6563 1361.3306,82.4688 1364.2525,82.4688 C1365.4869,82.4688 1366.6588,82.1719 1367.4088,81.6563 C1368.0181,81.2344 1368.3463,80.8125 1368.3463,80.4063 C1368.3463,79.9375 1367.9244,79.5313 1367.4244,79.5313 C1367.19,79.5313 1366.9713,79.6094 1366.7681,79.8125 C1366.3306,80.25 1366.3306,80.25 1366.1588,80.3438 C1365.7056,80.5781 1365.065,80.7188 1364.2994,80.7188 C1362.2994,80.7188 1361.0181,79.7031 1361.0181,78.125 L1361.0181,77.0781 C1361.0181,75.375 1362.2369,74.1719 1363.94,74.1719 C1364.5181,74.1719 1365.0963,74.3125 1365.565,74.5625 C1366.0338,74.8281 1366.2056,75.0156 1366.2681,75.375 C1366.3931,76.0469 1366.6431,76.2969 1367.1744,76.2969 C1367.4556,76.2969 1367.7369,76.1563 1367.9244,75.9375 C1368.0494,75.7656 1368.0963,75.5938 1368.0963,75.1563 L1368.0963,73.7969 C1368.0963,73.375 1368.0806,73.2344 1367.9556,73.0625 C1367.7838,72.8125 1367.5025,72.6563 1367.1744,72.6563 C1366.8619,72.6563 1366.6588,72.7656 1366.44,73.0313 C1365.2681,72.5313 1364.8306,72.4219 1363.8775,72.4219 C1361.2056,72.4219 1359.19,74.4375 1359.19,77.0625 L1359.19,78.1563 Z " fill="#000000"/><text fill="#000000" font-family="sans-serif" font-size="14" lengthAdjust="spacing" textLength="85.6133" x="1378.19" y="82.0825">BibliotecaApp</text></g><!--class StartupDialog--><g class="entity" data-entity="StartupDialog" data-source-line="10" data-uid="ent0004" id="entity_StartupDialog"><rect fill="#F1F1F1" height="32" rx="2.5" ry="2.5" style="stroke:#181818;stroke-width:0.5;" width="116.8271" x="1520.59" y="209"/><ellipse cx="1535.59" cy="225" fill="#ADD1B2" rx="11" ry="11" style="stroke:#181818;stroke-width:1;"/><path d="M1530.59,226.1563 C1530.59,228.6563 1532.7306,230.4688 1535.6525,230.4688 C1536.8869,230.4688 1538.0588,230.1719 1538.8088,229.6563 C1539.4181,229.2344 1539.7463,228.8125 1539.7463,228.4063 C1539.7463,227.9375 1539.3244,227.5313 1538.8244,227.5313 C1538.59,227.5313 1538.3713,227.6094 1538.1681,227.8125 C1537.7306,228.25 1537.7306,228.25 1537.5588,228.3438 C1537.1056,228.5781 1536.465,228.7188 1535.6994,228.7188 C1533.6994,228.7188 1532.4181,227.7031 1532.4181,226.125 L1532.4181,225.0781 C1532.4181,223.375 1533.6369,222.1719 1535.34,222.1719 C1535.9181,222.1719 1536.4963,222.3125 1536.965,222.5625 C1537.4338,222.8281 1537.6056,223.0156 1537.6681,223.375 C1537.7931,224.0469 1538.0431,224.2969 1538.5744,224.2969 C1538.8556,224.2969 1539.1369,224.1563 1539.3244,223.9375 C1539.4494,223.7656 1539.4963,223.5938 1539.4963,223.1563 L1539.4963,221.7969 C1539.4963,221.375 1539.4806,221.2344 1539.3556,221.0625 C1539.1838,220.8125 1538.9025,220.6563 1538.5744,220.6563 C1538.2619,220.6563 1538.0588,220.7656 1537.84,221.0313 C1536.6681,220.5313 1536.2306,220.4219 1535.2775,220.4219 C1532.6056,220.4219 1530.59,222.4375 1530.59,225.0625 L1530.59,226.1563 Z " fill="#000000"/><text fill="#000000" font-family="sans-serif" font-size="14" lengthAdjust="spacing" textLength="84.8271" x="1549.59" y="230.0825">StartupDialog</text></g><!--class StartupResult--><g class="entity" data-entity="StartupResult" data-source-line="11" data-uid="ent0005" id="entity_StartupResult"><rect fill="#F1F1F1" height="32" rx="2.5" ry="2.5" style="stroke:#181818;stroke-width:0.5;" width="116.8203" x="1520.59" y="359"/><ellipse cx="1535.59" cy="375" fill="#ADD1B2" rx="11" ry="11" style="stroke:#181818;stroke-width:1;"/><path d="M1530.59,376.1563 C1530.59,378.6563 1532.7306,380.4688 1535.6525,380.4688 C1536.8869,380.4688 1538.0588,380.1719 1538.8088,379.6563 C1539.4181,379.2344 1539.7463,378.8125 1539.7463,378.4063 C1539.7463,377.9375 1539.3244,377.5313 1538.8244,377.5313 C1538.59,377.5313 1538.3713,377.6094 1538.1681,377.8125 C1537.7306,378.25 1537.7306,378.25 1537.5588,378.3438 C1537.1056,378.5781 1536.465,378.7188 1535.6994,378.7188 C1533.6994,378.7188 1532.4181,377.7031 1532.4181,376.125 L1532.4181,375.0781 C1532.4181,373.375 1533.6369,372.1719 1535.34,372.1719 C1535.9181,372.1719 1536.4963,372.3125 1536.965,372.5625 C1537.4338,372.8281 1537.6056,373.0156 1537.6681,373.375 C1537.7931,374.0469 1538.0431,374.2969 1538.5744,374.2969 C1538.8556,374.2969 1539.1369,374.1563 1539.3244,373.9375 C1539.4494,373.7656 1539.4963,373.5938 1539.4963,373.1563 L1539.4963,371.7969 C1539.4963,371.375 1539.4806,371.2344 1539.3556,371.0625 C1539.1838,370.8125 1538.9025,370.6563 1538.5744,370.6563 C1538.2619,370.6563 1538.0588,370.7656 1537.84,371.0313 C1536.6681,370.5313 1536.2306,370.4219 1535.2775,370.4219 C1532.6056,370.4219 1530.59,372.4375 1530.59,375.0625 L1530.59,376.1563 Z " fill="#000000"/><text fill="#000000" font-family="sans-serif" font-size="14" lengthAdjust="spacing" textLength="84.8203" x="1549.59" y="380.0825">StartupResult</text></g><!--class ContentManager--><g class="entity" data-entity="ContentManager" data-source-line="12" data-uid="ent0006" id="entity_ContentManager"><rect fill="#F1F1F1" height="32" rx="2.5" ry="2.5" style="stroke:#181818;stroke-width:0.5;" width="136.2891" x="1348.86" y="209"/><ellipse cx="1363.86" cy="225" fill="#ADD1B2" rx="11" ry="11" style="stroke:#181818;stroke-width:1;"/><path d="M1358.86,226.1563 C1358.86,228.6563 1361.0006,230.4688 1363.9225,230.4688 C1365.1569,230.4688 1366.3288,230.1719 1367.0788,229.6563 C1367.6881,229.2344 1368.0163,228.8125 1368.0163,228.4063 C1368.0163,227.9375 1367.5944,227.5313 1367.0944,227.5313 C1366.86,227.5313 1366.6413,227.6094 1366.4381,227.8125 C1366.0006,228.25 1366.0006,228.25 1365.8288,228.3438 C1365.3756,228.5781 1364.735,228.7188 1363.9694,228.7188 C1361.9694,228.7188 1360.6881,227.7031 1360.6881,226.125 L1360.6881,225.0781 C1360.6881,223.375 1361.9069,222.1719 1363.61,222.1719 C1364.1881,222.1719 1364.7663,222.3125 1365.235,222.5625 C1365.7038,222.8281 1365.8756,223.0156 1365.9381,223.375 C1366.0631,224.0469 1366.3131,224.2969 1366.8444,224.2969 C1367.1256,224.2969 1367.4069,224.1563 1367.5944,223.9375 C1367.7194,223.7656 1367.7663,223.5938 1367.7663,223.1563 L1367.7663,221.7969 C1367.7663,221.375 1367.7506,221.2344 1367.6256,221.0625 C1367.4538,220.8125 1367.1725,220.6563 1366.8444,220.6563 C1366.5319,220.6563 1366.3288,220.7656 1366.11,221.0313 C1364.9381,220.5313 1364.5006,220.4219 1363.5475,220.4219 C1360.8756,220.4219 1358.86,222.4375 1358.86,225.0625 L1358.86,226.1563 Z " fill="#000000"/><text fill="#000000" font-family="sans-serif" font-size="14" lengthAdjust="spacing" textLength="104.2891" x="1377.86" y="230.0825">ContentManager</text></g><!--class UiFacade--><g class="entity" data-entity="UiFacade" data-source-line="19" data-uid="ent0008" id="entity_UiFacade"><rect fill="#F1F1F1" height="32" rx="2.5" ry="2.5" style="stroke:#181818;stroke-width:0.5;" width="91.917" x="1826.04" y="209"/><ellipse cx="1841.04" cy="225" fill="#ADD1B2" rx="11" ry="11" style="stroke:#181818;stroke-width:1;"/><path d="M1836.04,226.1563 C1836.04,228.6563 1838.1806,230.4688 1841.1025,230.4688 C1842.3369,230.4688 1843.5088,230.1719 1844.2588,229.6563 C1844.8681,229.2344 1845.1963,228.8125 1845.1963,228.4063 C1845.1963,227.9375 1844.7744,227.5313 1844.2744,227.5313 C1844.04,227.5313 1843.8213,227.6094 1843.6181,227.8125 C1843.1806,228.25 1843.1806,228.25 1843.0088,228.3438 C1842.5556,228.5781 1841.915,228.7188 1841.1494,228.7188 C1839.1494,228.7188 1837.8681,227.7031 1837.8681,226.125 L1837.8681,225.0781 C1837.8681,223.375 1839.0869,222.1719 1840.79,222.1719 C1841.3681,222.1719 1841.9463,222.3125 1842.415,222.5625 C1842.8838,222.8281 1843.0556,223.0156 1843.1181,223.375 C1843.2431,224.0469 1843.4931,224.2969 1844.0244,224.2969 C1844.3056,224.2969 1844.5869,224.1563 1844.7744,223.9375 C1844.8994,223.7656 1844.9463,223.5938 1844.9463,223.1563 L1844.9463,221.7969 C1844.9463,221.375 1844.9306,221.2344 1844.8056,221.0625 C1844.6338,220.8125 1844.3525,220.6563 1844.0244,220.6563 C1843.7119,220.6563 1843.5088,220.7656 1843.29,221.0313 C1842.1181,220.5313 1841.6806,220.4219 1840.7275,220.4219 C1838.0556,220.4219 1836.04,222.4375 1836.04,225.0625 L1836.04,226.1563 Z " fill="#000000"/><text fill="#000000" font-family="sans-serif" font-size="14" lengthAdjust="spacing" textLength="59.917" x="1855.04" y="230.0825">UiFacade</text></g><!--class BookController--><g class="entity" data-entity="BookController" data-source-line="26" data-uid="ent0010" id="entity_BookController"><rect fill="#F1F1F1" height="32" rx="2.5" ry="2.5" style="stroke:#181818;stroke-width:0.5;" width="124.5996" x="2132.7" y="359"/><ellipse cx="2147.7" cy="375" fill="#ADD1B2" rx="11" ry="11" style="stroke:#181818;stroke-width:1;"/><path d="M2142.7,376.1563 C2142.7,378.6563 2144.8406,380.4688 2147.7625,380.4688 C2148.9969,380.4688 2150.1688,380.1719 2150.9188,379.6563 C2151.5281,379.2344 2151.8563,378.8125 2151.8563,378.4063 C2151.8563,377.9375 2151.4344,377.5313 2150.9344,377.5313 C2150.7,377.5313 2150.4813,377.6094 2150.2781,377.8125 C2149.8406,378.25 2149.8406,378.25 2149.6688,378.3438 C2149.2156,378.5781 2148.575,378.7188 2147.8094,378.7188 C2145.8094,378.7188 2144.5281,377.7031 2144.5281,376.125 L2144.5281,375.0781 C2144.5281,373.375 2145.7469,372.1719 2147.45,372.1719 C2148.0281,372.1719 2148.6063,372.3125 2149.075,372.5625 C2149.5438,372.8281 2149.7156,373.0156 2149.7781,373.375 C2149.9031,374.0469 2150.1531,374.2969 2150.6844,374.2969 C2150.9656,374.2969 2151.2469,374.1563 2151.4344,373.9375 C2151.5594,373.7656 2151.6063,373.5938 2151.6063,373.1563 L2151.6063,371.7969 C2151.6063,371.375 2151.5906,371.2344 2151.4656,371.0625 C2151.2938,370.8125 2151.0125,370.6563 2150.6844,370.6563 C2150.3719,370.6563 2150.1688,370.7656 2149.95,371.0313 C2148.7781,370.5313 2148.3406,370.4219 2147.3875,370.4219 C2144.7156,370.4219 2142.7,372.4375 2142.7,375.0625 L2142.7,376.1563 Z " fill="#000000"/><text fill="#000000" font-family="sans-serif" font-size="14" lengthAdjust="spacing" textLength="92.5996" x="2161.7" y="380.0825">BookController</text></g><!--class PrestitoController--><g class="entity" data-entity="PrestitoController" data-source-line="27" data-uid="ent0011" id="entity_PrestitoController"><rect fill="#F1F1F1" height="32" rx="2.5" ry="2.5" style="stroke:#181818;stroke-width:0.5;" width="140.1514" x="1788.92" y="359"/><ellipse cx="1803.92" cy="375" fill="#ADD1B2" rx="11" ry="11" style="stroke:#181818;stroke-width:1;"/><path d="M1798.92,376.1563 C1798.92,378.6563 1801.0606,380.4688 1803.9825,380.4688 C1805.2169,380.4688 1806.3888,380.1719 1807.1388,379.6563 C1807.7481,379.2344 1808.0763,378.8125 1808.0763,378.4063 C1808.0763,377.9375 1807.6544,377.5313 1807.1544,377.5313 C1806.92,377.5313 1806.7013,377.6094 1806.4981,377.8125 C1806.0606,378.25 1806.0606,378.25 1805.8888,378.3438 C1805.4356,378.5781 1804.795,378.7188 1804.0294,378.7188 C1802.0294,378.7188 1800.7481,377.7031 1800.7481,376.125 L1800.7481,375.0781 C1800.7481,373.375 1801.9669,372.1719 1803.67,372.1719 C1804.2481,372.1719 1804.8263,372.3125 1805.295,372.5625 C1805.7638,372.8281 1805.9356,373.0156 1805.9981,373.375 C1806.1231,374.0469 1806.3731,374.2969 1806.9044,374.2969 C1807.1856,374.2969 1807.4669,374.1563 1807.6544,373.9375 C1807.7794,373.7656 1807.8263,373.5938 1807.8263,373.1563 L1807.8263,371.7969 C1807.8263,371.375 1807.8106,371.2344 1807.6856,371.0625 C1807.5138,370.8125 1807.2325,370.6563 1806.9044,370.6563 C1806.5919,370.6563 1806.3888,370.7656 1806.17,371.0313 C1804.9981,370.5313 1804.5606,370.4219 1803.6075,370.4219 C1800.9356,370.4219 1798.92,372.4375 1798.92,375.0625 L1798.92,376.1563 Z " fill="#000000"/><text fill="#000000" font-family="sans-serif" font-size="14" lengthAdjust="spacing" textLength="108.1514" x="1817.92" y="380.0825">PrestitoController</text></g><!--class UtenteController--><g class="entity" data-entity="UtenteController" data-source-line="28" data-uid="ent0012" id="entity_UtenteController"><rect fill="#F1F1F1" height="32" rx="2.5" ry="2.5" style="stroke:#181818;stroke-width:0.5;" width="133.9375" x="1964.03" y="359"/><ellipse cx="1979.03" cy="375" fill="#ADD1B2" rx="11" ry="11" style="stroke:#181818;stroke-width:1;"/><path d="M1974.03,376.1563 C1974.03,378.6563 1976.1706,380.4688 1979.0925,380.4688 C1980.3269,380.4688 1981.4988,380.1719 1982.2488,379.6563 C1982.8581,379.2344 1983.1863,378.8125 1983.1863,378.4063 C1983.1863,377.9375 1982.7644,377.5313 1982.2644,377.5313 C1982.03,377.5313 1981.8113,377.6094 1981.6081,377.8125 C1981.1706,378.25 1981.1706,378.25 1980.9988,378.3438 C1980.5456,378.5781 1979.905,378.7188 1979.1394,378.7188 C1977.1394,378.7188 1975.8581,377.7031 1975.8581,376.125 L1975.8581,375.0781 C1975.8581,373.375 1977.0769,372.1719 1978.78,372.1719 C1979.3581,372.1719 1979.9363,372.3125 1980.405,372.5625 C1980.8738,372.8281 1981.0456,373.0156 1981.1081,373.375 C1981.2331,374.0469 1981.4831,374.2969 1982.0144,374.2969 C1982.2956,374.2969 1982.5769,374.1563 1982.7644,373.9375 C1982.8894,373.7656 1982.9363,373.5938 1982.9363,373.1563 L1982.9363,371.7969 C1982.9363,371.375 1982.9206,371.2344 1982.7956,371.0625 C1982.6238,370.8125 1982.3425,370.6563 1982.0144,370.6563 C1981.7019,370.6563 1981.4988,370.7656 1981.28,371.0313 C1980.1081,370.5313 1979.6706,370.4219 1978.7175,370.4219 C1976.0456,370.4219 1974.03,372.4375 1974.03,375.0625 L1974.03,376.1563 Z " fill="#000000"/><text fill="#000000" font-family="sans-serif" font-size="14" lengthAdjust="spacing" textLength="101.9375" x="1993.03" y="380.0825">UtenteController</text></g><!--class AppContext--><g class="entity" data-entity="AppContext" data-source-line="35" data-uid="ent0014" id="entity_AppContext"><rect fill="#F1F1F1" height="32" rx="2.5" ry="2.5" style="stroke:#181818;stroke-width:0.5;" width="105.1582" x="1669.42" y="509"/><ellipse cx="1684.42" cy="525" fill="#ADD1B2" rx="11" ry="11" style="stroke:#181818;stroke-width:1;"/><path d="M1679.42,526.1563 C1679.42,528.6563 1681.5606,530.4688 1684.4825,530.4688 C1685.7169,530.4688 1686.8888,530.1719 1687.6388,529.6563 C1688.2481,529.2344 1688.5763,528.8125 1688.5763,528.4063 C1688.5763,527.9375 1688.1544,527.5313 1687.6544,527.5313 C1687.42,527.5313 1687.2013,527.6094 1686.9981,527.8125 C1686.5606,528.25 1686.5606,528.25 1686.3888,528.3438 C1685.9356,528.5781 1685.295,528.7188 1684.5294,528.7188 C1682.5294,528.7188 1681.2481,527.7031 1681.2481,526.125 L1681.2481,525.0781 C1681.2481,523.375 1682.4669,522.1719 1684.17,522.1719 C1684.7481,522.1719 1685.3263,522.3125 1685.795,522.5625 C1686.2638,522.8281 1686.4356,523.0156 1686.4981,523.375 C1686.6231,524.0469 1686.8731,524.2969 1687.4044,524.2969 C1687.6856,524.2969 1687.9669,524.1563 1688.1544,523.9375 C1688.2794,523.7656 1688.3263,523.5938 1688.3263,523.1563 L1688.3263,521.7969 C1688.3263,521.375 1688.3106,521.2344 1688.1856,521.0625 C1688.0138,520.8125 1687.7325,520.6563 1687.4044,520.6563 C1687.0919,520.6563 1686.8888,520.7656 1686.67,521.0313 C1685.4981,520.5313 1685.0606,520.4219 1684.1075,520.4219 C1681.4356,520.4219 1679.42,522.4375 1679.42,525.0625 L1679.42,526.1563 Z " fill="#000000"/><text fill="#000000" font-family="sans-serif" font-size="14" lengthAdjust="spacing" textLength="73.1582" x="1698.42" y="530.0825">AppContext</text></g><!--class BookService--><g class="entity" data-entity="BookService" data-source-line="36" data-uid="ent0015" id="entity_BookService"><rect fill="#F1F1F1" height="32" rx="2.5" ry="2.5" style="stroke:#181818;stroke-width:0.5;" width="110.5928" x="2125.7" y="509"/><ellipse cx="2140.7" cy="525" fill="#ADD1B2" rx="11" ry="11" style="stroke:#181818;stroke-width:1;"/><path d="M2135.7,526.1563 C2135.7,528.6563 2137.8406,530.4688 2140.7625,530.4688 C2141.9969,530.4688 2143.1688,530.1719 2143.9188,529.6563 C2144.5281,529.2344 2144.8563,528.8125 2144.8563,528.4063 C2144.8563,527.9375 2144.4344,527.5313 2143.9344,527.5313 C2143.7,527.5313 2143.4813,527.6094 2143.2781,527.8125 C2142.8406,528.25 2142.8406,528.25 2142.6688,528.3438 C2142.2156,528.5781 2141.575,528.7188 2140.8094,528.7188 C2138.8094,528.7188 2137.5281,527.7031 2137.5281,526.125 L2137.5281,525.0781 C2137.5281,523.375 2138.7469,522.1719 2140.45,522.1719 C2141.0281,522.1719 2141.6063,522.3125 2142.075,522.5625 C2142.5438,522.8281 2142.7156,523.0156 2142.7781,523.375 C2142.9031,524.0469 2143.1531,524.2969 2143.6844,524.2969 C2143.9656,524.2969 2144.2469,524.1563 2144.4344,523.9375 C2144.5594,523.7656 2144.6063,523.5938 2144.6063,523.1563 L2144.6063,521.7969 C2144.6063,521.375 2144.5906,521.2344 2144.4656,521.0625 C2144.2938,520.8125 2144.0125,520.6563 2143.6844,520.6563 C2143.3719,520.6563 2143.1688,520.7656 2142.95,521.0313 C2141.7781,520.5313 2141.3406,520.4219 2140.3875,520.4219 C2137.7156,520.4219 2135.7,522.4375 2135.7,525.0625 L2135.7,526.1563 Z " fill="#000000"/><text fill="#000000" font-family="sans-serif" font-size="14" lengthAdjust="spacing" textLength="78.5928" x="2154.7" y="530.0825">BookService</text></g><!--class PrestitoService--><g class="entity" data-entity="PrestitoService" data-source-line="37" data-uid="ent0016" id="entity_PrestitoService"><rect fill="#F1F1F1" height="32" rx="2.5" ry="2.5" style="stroke:#181818;stroke-width:0.5;" width="126.1445" x="1809.93" y="509"/><ellipse cx="1824.93" cy="525" fill="#ADD1B2" rx="11" ry="11" style="stroke:#181818;stroke-width:1;"/><path d="M1819.93,526.1563 C1819.93,528.6563 1822.0706,530.4688 1824.9925,530.4688 C1826.2269,530.4688 1827.3988,530.1719 1828.1488,529.6563 C1828.7581,529.2344 1829.0863,528.8125 1829.0863,528.4063 C1829.0863,527.9375 1828.6644,527.5313 1828.1644,527.5313 C1827.93,527.5313 1827.7113,527.6094 1827.5081,527.8125 C1827.0706,528.25 1827.0706,528.25 1826.8988,528.3438 C1826.4456,528.5781 1825.805,528.7188 1825.0394,528.7188 C1823.0394,528.7188 1821.7581,527.7031 1821.7581,526.125 L1821.7581,525.0781 C1821.7581,523.375 1822.9769,522.1719 1824.68,522.1719 C1825.2581,522.1719 1825.8363,522.3125 1826.305,522.5625 C1826.7738,522.8281 1826.9456,523.0156 1827.0081,523.375 C1827.1331,524.0469 1827.3831,524.2969 1827.9144,524.2969 C1828.1956,524.2969 1828.4769,524.1563 1828.6644,523.9375 C1828.7894,523.7656 1828.8363,523.5938 1828.8363,523.1563 L1828.8363,521.7969 C1828.8363,521.375 1828.8206,521.2344 1828.6956,521.0625 C1828.5238,520.8125 1828.2425,520.6563 1827.9144,520.6563 C1827.6019,520.6563 1827.3988,520.7656 1827.18,521.0313 C1826.0081,520.5313 1825.5706,520.4219 1824.6175,520.4219 C1821.9456,520.4219 1819.93,522.4375 1819.93,525.0625 L1819.93,526.1563 Z " fill="#000000"/><text fill="#000000" font-family="sans-serif" font-size="14" lengthAdjust="spacing" textLength="94.1445" x="1838.93" y="530.0825">PrestitoService</text></g><!--class UtenteService--><g class="entity" data-entity="UtenteService" data-source-line="38" data-uid="ent0017" id="entity_UtenteService"><rect fill="#F1F1F1" height="32" rx="2.5" ry="2.5" style="stroke:#181818;stroke-width:0.5;" width="119.9307" x="1971.03" y="509"/><ellipse cx="1986.03" cy="525" fill="#ADD1B2" rx="11" ry="11" style="stroke:#181818;stroke-width:1;"/><path d="M1981.03,526.1563 C1981.03,528.6563 1983.1706,530.4688 1986.0925,530.4688 C1987.3269,530.4688 1988.4988,530.1719 1989.2488,529.6563 C1989.8581,529.2344 1990.1863,528.8125 1990.1863,528.4063 C1990.1863,527.9375 1989.7644,527.5313 1989.2644,527.5313 C1989.03,527.5313 1988.8113,527.6094 1988.6081,527.8125 C1988.1706,528.25 1988.1706,528.25 1987.9988,528.3438 C1987.5456,528.5781 1986.905,528.7188 1986.1394,528.7188 C1984.1394,528.7188 1982.8581,527.7031 1982.8581,526.125 L1982.8581,525.0781 C1982.8581,523.375 1984.0769,522.1719 1985.78,522.1719 C1986.3581,522.1719 1986.9363,522.3125 1987.405,522.5625 C1987.8738,522.8281 1988.0456,523.0156 1988.1081,523.375 C1988.2331,524.0469 1988.4831,524.2969 1989.0144,524.2969 C1989.2956,524.2969 1989.5769,524.1563 1989.7644,523.9375 C1989.8894,523.7656 1989.9363,523.5938 1989.9363,523.1563 L1989.9363,521.7969 C1989.9363,521.375 1989.9206,521.2344 1989.7956,521.0625 C1989.6238,520.8125 1989.3425,520.6563 1989.0144,520.6563 C1988.7019,520.6563 1988.4988,520.7656 1988.28,521.0313 C1987.1081,520.5313 1986.6706,520.4219 1985.7175,520.4219 C1983.0456,520.4219 1981.03,522.4375 1981.03,525.0625 L1981.03,526.1563 Z " fill="#000000"/><text fill="#000000" font-family="sans-serif" font-size="14" lengthAdjust="spacing" textLength="87.9307" x="2000.03" y="530.0825">UtenteService</text></g><!--class Book--><g class="entity" data-entity="Book" data-source-line="45" data-uid="ent0019" id="entity_Book"><rect fill="#F1F1F1" height="32" rx="2.5" ry="2.5" style="stroke:#181818;stroke-width:0.5;" width="63.9102" x="2514.04" y="777"/><ellipse cx="2529.04" cy="793" fill="#ADD1B2" rx="11" ry="11" style="stroke:#181818;stroke-width:1;"/><path d="M2524.04,794.1563 C2524.04,796.6563 2526.1806,798.4688 2529.1025,798.4688 C2530.3369,798.4688 2531.5088,798.1719 2532.2588,797.6563 C2532.8681,797.2344 2533.1963,796.8125 2533.1963,796.4063 C2533.1963,795.9375 2532.7744,795.5313 2532.2744,795.5313 C2532.04,795.5313 2531.8213,795.6094 2531.6181,795.8125 C2531.1806,796.25 2531.1806,796.25 2531.0088,796.3438 C2530.5556,796.5781 2529.915,796.7188 2529.1494,796.7188 C2527.1494,796.7188 2525.8681,795.7031 2525.8681,794.125 L2525.8681,793.0781 C2525.8681,791.375 2527.0869,790.1719 2528.79,790.1719 C2529.3681,790.1719 2529.9463,790.3125 2530.415,790.5625 C2530.8838,790.8281 2531.0556,791.0156 2531.1181,791.375 C2531.2431,792.0469 2531.4931,792.2969 2532.0244,792.2969 C2532.3056,792.2969 2532.5869,792.1563 2532.7744,791.9375 C2532.8994,791.7656 2532.9463,791.5938 2532.9463,791.1563 L2532.9463,789.7969 C2532.9463,789.375 2532.9306,789.2344 2532.8056,789.0625 C2532.6338,788.8125 2532.3525,788.6563 2532.0244,788.6563 C2531.7119,788.6563 2531.5088,788.7656 2531.29,789.0313 C2530.1181,788.5313 2529.6806,788.4219 2528.7275,788.4219 C2526.0556,788.4219 2524.04,790.4375 2524.04,793.0625 L2524.04,794.1563 Z " fill="#000000"/><text fill="#000000" font-family="sans-serif" font-size="14" lengthAdjust="spacing" textLength="31.9102" x="2543.04" y="798.0825">Book</text></g><!--class Prestito--><g class="entity" data-entity="Prestito" data-source-line="46" data-uid="ent0020" id="entity_Prestito"><rect fill="#F1F1F1" height="32" rx="2.5" ry="2.5" style="stroke:#181818;stroke-width:0.5;" width="79.4619" x="2013.27" y="777"/><ellipse cx="2028.27" cy="793" fill="#ADD1B2" rx="11" ry="11" style="stroke:#181818;stroke-width:1;"/><path d="M2023.27,794.1563 C2023.27,796.6563 2025.4106,798.4688 2028.3325,798.4688 C2029.5669,798.4688 2030.7388,798.1719 2031.4888,797.6563 C2032.0981,797.2344 2032.4263,796.8125 2032.4263,796.4063 C2032.4263,795.9375 2032.0044,795.5313 2031.5044,795.5313 C2031.27,795.5313 2031.0513,795.6094 2030.8481,795.8125 C2030.4106,796.25 2030.4106,796.25 2030.2388,796.3438 C2029.7856,796.5781 2029.145,796.7188 2028.3794,796.7188 C2026.3794,796.7188 2025.0981,795.7031 2025.0981,794.125 L2025.0981,793.0781 C2025.0981,791.375 2026.3169,790.1719 2028.02,790.1719 C2028.5981,790.1719 2029.1763,790.3125 2029.645,790.5625 C2030.1138,790.8281 2030.2856,791.0156 2030.3481,791.375 C2030.4731,792.0469 2030.7231,792.2969 2031.2544,792.2969 C2031.5356,792.2969 2031.8169,792.1563 2032.0044,791.9375 C2032.1294,791.7656 2032.1763,791.5938 2032.1763,791.1563 L2032.1763,789.7969 C2032.1763,789.375 2032.1606,789.2344 2032.0356,789.0625 C2031.8638,788.8125 2031.5825,788.6563 2031.2544,788.6563 C2030.9419,788.6563 2030.7388,788.7656 2030.52,789.0313 C2029.3481,788.5313 2028.9106,788.4219 2027.9575,788.4219 C2025.2856,788.4219 2023.27,790.4375 2023.27,793.0625 L2023.27,794.1563 Z " fill="#000000"/><text fill="#000000" font-family="sans-serif" font-size="14" lengthAdjust="spacing" textLength="47.4619" x="2042.27" y="798.0825">Prestito</text></g><!--class Utente--><g class="entity" data-entity="Utente" data-source-line="47" data-uid="ent0021" id="entity_Utente"><rect fill="#F1F1F1" height="32" rx="2.5" ry="2.5" style="stroke:#181818;stroke-width:0.5;" width="73.248" x="2127.38" y="777"/><ellipse cx="2142.38" cy="793" fill="#ADD1B2" rx="11" ry="11" style="stroke:#181818;stroke-width:1;"/><path d="M2137.38,794.1563 C2137.38,796.6563 2139.5206,798.4688 2142.4425,798.4688 C2143.6769,798.4688 2144.8488,798.1719 2145.5988,797.6563 C2146.2081,797.2344 2146.5363,796.8125 2146.5363,796.4063 C2146.5363,795.9375 2146.1144,795.5313 2145.6144,795.5313 C2145.38,795.5313 2145.1613,795.6094 2144.9581,795.8125 C2144.5206,796.25 2144.5206,796.25 2144.3488,796.3438 C2143.8956,796.5781 2143.255,796.7188 2142.4894,796.7188 C2140.4894,796.7188 2139.2081,795.7031 2139.2081,794.125 L2139.2081,793.0781 C2139.2081,791.375 2140.4269,790.1719 2142.13,790.1719 C2142.7081,790.1719 2143.2863,790.3125 2143.755,790.5625 C2144.2238,790.8281 2144.3956,791.0156 2144.4581,791.375 C2144.5831,792.0469 2144.8331,792.2969 2145.3644,792.2969 C2145.6456,792.2969 2145.9269,792.1563 2146.1144,791.9375 C2146.2394,791.7656 2146.2863,791.5938 2146.2863,791.1563 L2146.2863,789.7969 C2146.2863,789.375 2146.2706,789.2344 2146.1456,789.0625 C2145.9738,788.8125 2145.6925,788.6563 2145.3644,788.6563 C2145.0519,788.6563 2144.8488,788.7656 2144.63,789.0313 C2143.4581,788.5313 2143.0206,788.4219 2142.0675,788.4219 C2139.3956,788.4219 2137.38,790.4375 2137.38,793.0625 L2137.38,794.1563 Z " fill="#000000"/><text fill="#000000" font-family="sans-serif" font-size="14" lengthAdjust="spacing" textLength="41.248" x="2156.38" y="798.0825">Utente</text></g><!--class BookBean--><g class="entity" data-entity="BookBean" data-source-line="49" data-uid="ent0022" id="entity_BookBean"><rect fill="#F1F1F1" height="32" rx="2.5" ry="2.5" style="stroke:#181818;stroke-width:0.5;" width="96.6064" x="2382.7" y="777"/><ellipse cx="2397.7" cy="793" fill="#ADD1B2" rx="11" ry="11" style="stroke:#181818;stroke-width:1;"/><path d="M2392.7,794.1563 C2392.7,796.6563 2394.8406,798.4688 2397.7625,798.4688 C2398.9969,798.4688 2400.1688,798.1719 2400.9188,797.6563 C2401.5281,797.2344 2401.8563,796.8125 2401.8563,796.4063 C2401.8563,795.9375 2401.4344,795.5313 2400.9344,795.5313 C2400.7,795.5313 2400.4813,795.6094 2400.2781,795.8125 C2399.8406,796.25 2399.8406,796.25 2399.6688,796.3438 C2399.2156,796.5781 2398.575,796.7188 2397.8094,796.7188 C2395.8094,796.7188 2394.5281,795.7031 2394.5281,794.125 L2394.5281,793.0781 C2394.5281,791.375 2395.7469,790.1719 2397.45,790.1719 C2398.0281,790.1719 2398.6063,790.3125 2399.075,790.5625 C2399.5438,790.8281 2399.7156,791.0156 2399.7781,791.375 C2399.9031,792.0469 2400.1531,792.2969 2400.6844,792.2969 C2400.9656,792.2969 2401.2469,792.1563 2401.4344,791.9375 C2401.5594,791.7656 2401.6063,791.5938 2401.6063,791.1563 L2401.6063,789.7969 C2401.6063,789.375 2401.5906,789.2344 2401.4656,789.0625 C2401.2938,788.8125 2401.0125,788.6563 2400.6844,788.6563 C2400.3719,788.6563 2400.1688,788.7656 2399.95,789.0313 C2398.7781,788.5313 2398.3406,788.4219 2397.3875,788.4219 C2394.7156,788.4219 2392.7,790.4375 2392.7,793.0625 L2392.7,794.1563 Z " fill="#000000"/><text fill="#000000" font-family="sans-serif" font-size="14" lengthAdjust="spacing" textLength="64.6064" x="2411.7" y="798.0825">BookBean</text></g><!--class PrestitoBean--><g class="entity" data-entity="PrestitoBean" data-source-line="50" data-uid="ent0023" id="entity_PrestitoBean"><rect fill="#F1F1F1" height="32" rx="2.5" ry="2.5" style="stroke:#181818;stroke-width:0.5;" width="112.1582" x="2235.92" y="777"/><ellipse cx="2250.92" cy="793" fill="#ADD1B2" rx="11" ry="11" style="stroke:#181818;stroke-width:1;"/><path d="M2245.92,794.1563 C2245.92,796.6563 2248.0606,798.4688 2250.9825,798.4688 C2252.2169,798.4688 2253.3888,798.1719 2254.1388,797.6563 C2254.7481,797.2344 2255.0763,796.8125 2255.0763,796.4063 C2255.0763,795.9375 2254.6544,795.5313 2254.1544,795.5313 C2253.92,795.5313 2253.7013,795.6094 2253.4981,795.8125 C2253.0606,796.25 2253.0606,796.25 2252.8888,796.3438 C2252.4356,796.5781 2251.795,796.7188 2251.0294,796.7188 C2249.0294,796.7188 2247.7481,795.7031 2247.7481,794.125 L2247.7481,793.0781 C2247.7481,791.375 2248.9669,790.1719 2250.67,790.1719 C2251.2481,790.1719 2251.8263,790.3125 2252.295,790.5625 C2252.7638,790.8281 2252.9356,791.0156 2252.9981,791.375 C2253.1231,792.0469 2253.3731,792.2969 2253.9044,792.2969 C2254.1856,792.2969 2254.4669,792.1563 2254.6544,791.9375 C2254.7794,791.7656 2254.8263,791.5938 2254.8263,791.1563 L2254.8263,789.7969 C2254.8263,789.375 2254.8106,789.2344 2254.6856,789.0625 C2254.5138,788.8125 2254.2325,788.6563 2253.9044,788.6563 C2253.5919,788.6563 2253.3888,788.7656 2253.17,789.0313 C2251.9981,788.5313 2251.5606,788.4219 2250.6075,788.4219 C2247.9356,788.4219 2245.92,790.4375 2245.92,793.0625 L2245.92,794.1563 Z " fill="#000000"/><text fill="#000000" font-family="sans-serif" font-size="14" lengthAdjust="spacing" textLength="80.1582" x="2264.92" y="798.0825">PrestitoBean</text></g><!--class UtenteBean--><g class="entity" data-entity="UtenteBean" data-source-line="51" data-uid="ent0024" id="entity_UtenteBean"><rect fill="#F1F1F1" height="32" rx="2.5" ry="2.5" style="stroke:#181818;stroke-width:0.5;" width="105.9443" x="1872.03" y="777"/><ellipse cx="1887.03" cy="793" fill="#ADD1B2" rx="11" ry="11" style="stroke:#181818;stroke-width:1;"/><path d="M1882.03,794.1563 C1882.03,796.6563 1884.1706,798.4688 1887.0925,798.4688 C1888.3269,798.4688 1889.4988,798.1719 1890.2488,797.6563 C1890.8581,797.2344 1891.1863,796.8125 1891.1863,796.4063 C1891.1863,795.9375 1890.7644,795.5313 1890.2644,795.5313 C1890.03,795.5313 1889.8113,795.6094 1889.6081,795.8125 C1889.1706,796.25 1889.1706,796.25 1888.9988,796.3438 C1888.5456,796.5781 1887.905,796.7188 1887.1394,796.7188 C1885.1394,796.7188 1883.8581,795.7031 1883.8581,794.125 L1883.8581,793.0781 C1883.8581,791.375 1885.0769,790.1719 1886.78,790.1719 C1887.3581,790.1719 1887.9363,790.3125 1888.405,790.5625 C1888.8738,790.8281 1889.0456,791.0156 1889.1081,791.375 C1889.2331,792.0469 1889.4831,792.2969 1890.0144,792.2969 C1890.2956,792.2969 1890.5769,792.1563 1890.7644,791.9375 C1890.8894,791.7656 1890.9363,791.5938 1890.9363,791.1563 L1890.9363,789.7969 C1890.9363,789.375 1890.9206,789.2344 1890.7956,789.0625 C1890.6238,788.8125 1890.3425,788.6563 1890.0144,788.6563 C1889.7019,788.6563 1889.4988,788.7656 1889.28,789.0313 C1888.1081,788.5313 1887.6706,788.4219 1886.7175,788.4219 C1884.0456,788.4219 1882.03,790.4375 1882.03,793.0625 L1882.03,794.1563 Z " fill="#000000"/><text fill="#000000" font-family="sans-serif" font-size="14" lengthAdjust="spacing" textLength="73.9443" x="1901.03" y="798.0825">UtenteBean</text></g><!--class BookDAO--><g class="entity" data-entity="BookDAO" data-source-line="58" data-uid="ent0026" id="entity_BookDAO"><rect fill="#F1F1F1" height="32" rx="2.5" ry="2.5" style="stroke:#181818;stroke-width:0.5;" width="94.248" x="174.88" y="872"/><ellipse cx="189.88" cy="888" fill="#B4A7E5" rx="11" ry="11" style="stroke:#181818;stroke-width:1;"/><path d="M190.8956,885.1563 L192.5519,885.1563 C192.9425,885.1563 193.1456,885.125 193.3019,885.0469 C193.5675,884.875 193.7394,884.5781 193.7394,884.2813 C193.7394,884 193.5988,883.75 193.3644,883.5781 C193.1769,883.4531 193.0206,883.4063 192.5519,883.4063 L187.4113,883.4063 C186.9738,883.4063 186.8331,883.4219 186.6613,883.5313 C186.3956,883.7031 186.2238,883.9844 186.2238,884.2813 C186.2238,884.5625 186.3644,884.8438 186.5988,885 C186.7863,885.125 186.9738,885.1563 187.4113,885.1563 L189.0675,885.1563 L189.0675,891.25 L187.4113,891.25 C186.9738,891.25 186.8331,891.2656 186.6613,891.375 C186.3956,891.5313 186.2238,891.8281 186.2238,892.1094 C186.2238,892.7188 186.63,893 187.4113,893 L192.5519,893 C193.3331,893 193.7394,892.7188 193.7394,892.1094 C193.7394,891.8438 193.5988,891.5938 193.3644,891.4219 C193.1769,891.2813 193.005,891.25 192.5519,891.25 L190.8956,891.25 L190.8956,885.1563 Z " fill="#000000"/><text fill="#000000" font-family="sans-serif" font-size="14" font-style="italic" lengthAdjust="spacing" textLength="62.248" x="203.88" y="893.0825">BookDAO</text></g><!--class PrestitoDAO--><g class="entity" data-entity="PrestitoDAO" data-source-line="59" data-uid="ent0027" id="entity_PrestitoDAO"><rect fill="#F1F1F1" height="32" rx="2.5" ry="2.5" style="stroke:#181818;stroke-width:0.5;" width="109.7998" x="318.1" y="872"/><ellipse cx="333.1" cy="888" fill="#B4A7E5" rx="11" ry="11" style="stroke:#181818;stroke-width:1;"/><path d="M334.1156,885.1563 L335.7719,885.1563 C336.1625,885.1563 336.3656,885.125 336.5219,885.0469 C336.7875,884.875 336.9594,884.5781 336.9594,884.2813 C336.9594,884 336.8188,883.75 336.5844,883.5781 C336.3969,883.4531 336.2406,883.4063 335.7719,883.4063 L330.6313,883.4063 C330.1938,883.4063 330.0531,883.4219 329.8813,883.5313 C329.6156,883.7031 329.4438,883.9844 329.4438,884.2813 C329.4438,884.5625 329.5844,884.8438 329.8188,885 C330.0063,885.125 330.1938,885.1563 330.6313,885.1563 L332.2875,885.1563 L332.2875,891.25 L330.6313,891.25 C330.1938,891.25 330.0531,891.2656 329.8813,891.375 C329.6156,891.5313 329.4438,891.8281 329.4438,892.1094 C329.4438,892.7188 329.85,893 330.6313,893 L335.7719,893 C336.5531,893 336.9594,892.7188 336.9594,892.1094 C336.9594,891.8438 336.8188,891.5938 336.5844,891.4219 C336.3969,891.2813 336.225,891.25 335.7719,891.25 L334.1156,891.25 L334.1156,885.1563 Z " fill="#000000"/><text fill="#000000" font-family="sans-serif" font-size="14" font-style="italic" lengthAdjust="spacing" textLength="77.7998" x="347.1" y="893.0825">PrestitoDAO</text></g><!--class UtenteDAO--><g class="entity" data-entity="UtenteDAO" data-source-line="60" data-uid="ent0028" id="entity_UtenteDAO"><rect fill="#F1F1F1" height="32" rx="2.5" ry="2.5" style="stroke:#181818;stroke-width:0.5;" width="103.5859" x="490.21" y="872"/><ellipse cx="505.21" cy="888" fill="#B4A7E5" rx="11" ry="11" style="stroke:#181818;stroke-width:1;"/><path d="M506.2256,885.1563 L507.8819,885.1563 C508.2725,885.1563 508.4756,885.125 508.6319,885.0469 C508.8975,884.875 509.0694,884.5781 509.0694,884.2813 C509.0694,884 508.9288,883.75 508.6944,883.5781 C508.5069,883.4531 508.3506,883.4063 507.8819,883.4063 L502.7413,883.4063 C502.3038,883.4063 502.1631,883.4219 501.9913,883.5313 C501.7256,883.7031 501.5538,883.9844 501.5538,884.2813 C501.5538,884.5625 501.6944,884.8438 501.9288,885 C502.1163,885.125 502.3038,885.1563 502.7413,885.1563 L504.3975,885.1563 L504.3975,891.25 L502.7413,891.25 C502.3038,891.25 502.1631,891.2656 501.9913,891.375 C501.7256,891.5313 501.5538,891.8281 501.5538,892.1094 C501.5538,892.7188 501.96,893 502.7413,893 L507.8819,893 C508.6631,893 509.0694,892.7188 509.0694,892.1094 C509.0694,891.8438 508.9288,891.5938 508.6944,891.4219 C508.5069,891.2813 508.335,891.25 507.8819,891.25 L506.2256,891.25 L506.2256,885.1563 Z " fill="#000000"/><text fill="#000000" font-family="sans-serif" font-size="14" font-style="italic" lengthAdjust="spacing" textLength="71.5859" x="519.21" y="893.0825">UtenteDAO</text></g><!--class DaoFactory--><g class="entity" data-entity="DaoFactory" data-source-line="62" data-uid="ent0029" id="entity_DaoFactory"><rect fill="#F1F1F1" height="32" rx="2.5" ry="2.5" style="stroke:#181818;stroke-width:0.5;" width="104.3584" x="169.82" y="777"/><ellipse cx="184.82" cy="793" fill="#ADD1B2" rx="11" ry="11" style="stroke:#181818;stroke-width:1;"/><path d="M179.82,794.1563 C179.82,796.6563 181.9606,798.4688 184.8825,798.4688 C186.1169,798.4688 187.2888,798.1719 188.0388,797.6563 C188.6481,797.2344 188.9763,796.8125 188.9763,796.4063 C188.9763,795.9375 188.5544,795.5313 188.0544,795.5313 C187.82,795.5313 187.6013,795.6094 187.3981,795.8125 C186.9606,796.25 186.9606,796.25 186.7888,796.3438 C186.3356,796.5781 185.695,796.7188 184.9294,796.7188 C182.9294,796.7188 181.6481,795.7031 181.6481,794.125 L181.6481,793.0781 C181.6481,791.375 182.8669,790.1719 184.57,790.1719 C185.1481,790.1719 185.7263,790.3125 186.195,790.5625 C186.6638,790.8281 186.8356,791.0156 186.8981,791.375 C187.0231,792.0469 187.2731,792.2969 187.8044,792.2969 C188.0856,792.2969 188.3669,792.1563 188.5544,791.9375 C188.6794,791.7656 188.7263,791.5938 188.7263,791.1563 L188.7263,789.7969 C188.7263,789.375 188.7106,789.2344 188.5856,789.0625 C188.4138,788.8125 188.1325,788.6563 187.8044,788.6563 C187.4919,788.6563 187.2888,788.7656 187.07,789.0313 C185.8981,788.5313 185.4606,788.4219 184.5075,788.4219 C181.8356,788.4219 179.82,790.4375 179.82,793.0625 L179.82,794.1563 Z " fill="#000000"/><text fill="#000000" font-family="sans-serif" font-size="14" lengthAdjust="spacing" textLength="72.3584" x="198.82" y="798.0825">DaoFactory</text></g><!--class DbDaoFactory--><g class="entity" data-entity="DbDaoFactory" data-source-line="63" data-uid="ent0030" id="entity_DbDaoFactory"><rect fill="#F1F1F1" height="32" rx="2.5" ry="2.5" style="stroke:#181818;stroke-width:0.5;" width="122.2549" x="274.87" y="644"/><ellipse cx="289.87" cy="660" fill="#ADD1B2" rx="11" ry="11" style="stroke:#181818;stroke-width:1;"/><path d="M284.87,661.1563 C284.87,663.6563 287.0106,665.4688 289.9325,665.4688 C291.1669,665.4688 292.3388,665.1719 293.0888,664.6563 C293.6981,664.2344 294.0263,663.8125 294.0263,663.4063 C294.0263,662.9375 293.6044,662.5313 293.1044,662.5313 C292.87,662.5313 292.6513,662.6094 292.4481,662.8125 C292.0106,663.25 292.0106,663.25 291.8388,663.3438 C291.3856,663.5781 290.745,663.7188 289.9794,663.7188 C287.9794,663.7188 286.6981,662.7031 286.6981,661.125 L286.6981,660.0781 C286.6981,658.375 287.9169,657.1719 289.62,657.1719 C290.1981,657.1719 290.7763,657.3125 291.245,657.5625 C291.7138,657.8281 291.8856,658.0156 291.9481,658.375 C292.0731,659.0469 292.3231,659.2969 292.8544,659.2969 C293.1356,659.2969 293.4169,659.1563 293.6044,658.9375 C293.7294,658.7656 293.7763,658.5938 293.7763,658.1563 L293.7763,656.7969 C293.7763,656.375 293.7606,656.2344 293.6356,656.0625 C293.4638,655.8125 293.1825,655.6563 292.8544,655.6563 C292.5419,655.6563 292.3388,655.7656 292.12,656.0313 C290.9481,655.5313 290.5106,655.4219 289.5575,655.4219 C286.8856,655.4219 284.87,657.4375 284.87,660.0625 L284.87,661.1563 Z " fill="#000000"/><text fill="#000000" font-family="sans-serif" font-size="14" lengthAdjust="spacing" textLength="90.2549" x="303.87" y="665.0825">DbDaoFactory</text></g><!--class DbBookDAO--><g class="entity" data-entity="DbBookDAO" data-source-line="65" data-uid="ent0031" id="entity_DbBookDAO"><rect fill="#F1F1F1" height="32" rx="2.5" ry="2.5" style="stroke:#181818;stroke-width:0.5;" width="112.1445" x="22.93" y="777"/><ellipse cx="37.93" cy="793" fill="#ADD1B2" rx="11" ry="11" style="stroke:#181818;stroke-width:1;"/><path d="M32.93,794.1563 C32.93,796.6563 35.0706,798.4688 37.9925,798.4688 C39.2269,798.4688 40.3988,798.1719 41.1488,797.6563 C41.7581,797.2344 42.0863,796.8125 42.0863,796.4063 C42.0863,795.9375 41.6644,795.5313 41.1644,795.5313 C40.93,795.5313 40.7113,795.6094 40.5081,795.8125 C40.0706,796.25 40.0706,796.25 39.8988,796.3438 C39.4456,796.5781 38.805,796.7188 38.0394,796.7188 C36.0394,796.7188 34.7581,795.7031 34.7581,794.125 L34.7581,793.0781 C34.7581,791.375 35.9769,790.1719 37.68,790.1719 C38.2581,790.1719 38.8363,790.3125 39.305,790.5625 C39.7738,790.8281 39.9456,791.0156 40.0081,791.375 C40.1331,792.0469 40.3831,792.2969 40.9144,792.2969 C41.1956,792.2969 41.4769,792.1563 41.6644,791.9375 C41.7894,791.7656 41.8363,791.5938 41.8363,791.1563 L41.8363,789.7969 C41.8363,789.375 41.8206,789.2344 41.6956,789.0625 C41.5238,788.8125 41.2425,788.6563 40.9144,788.6563 C40.6019,788.6563 40.3988,788.7656 40.18,789.0313 C39.0081,788.5313 38.5706,788.4219 37.6175,788.4219 C34.9456,788.4219 32.93,790.4375 32.93,793.0625 L32.93,794.1563 Z " fill="#000000"/><text fill="#000000" font-family="sans-serif" font-size="14" lengthAdjust="spacing" textLength="80.1445" x="51.93" y="798.0825">DbBookDAO</text></g><!--class DbPrestitoDAO--><g class="entity" data-entity="DbPrestitoDAO" data-source-line="66" data-uid="ent0032" id="entity_DbPrestitoDAO"><rect fill="#F1F1F1" height="32" rx="2.5" ry="2.5" style="stroke:#181818;stroke-width:0.5;" width="127.6963" x="309.15" y="777"/><ellipse cx="324.15" cy="793" fill="#ADD1B2" rx="11" ry="11" style="stroke:#181818;stroke-width:1;"/><path d="M319.15,794.1563 C319.15,796.6563 321.2906,798.4688 324.2125,798.4688 C325.4469,798.4688 326.6188,798.1719 327.3688,797.6563 C327.9781,797.2344 328.3063,796.8125 328.3063,796.4063 C328.3063,795.9375 327.8844,795.5313 327.3844,795.5313 C327.15,795.5313 326.9313,795.6094 326.7281,795.8125 C326.2906,796.25 326.2906,796.25 326.1188,796.3438 C325.6656,796.5781 325.025,796.7188 324.2594,796.7188 C322.2594,796.7188 320.9781,795.7031 320.9781,794.125 L320.9781,793.0781 C320.9781,791.375 322.1969,790.1719 323.9,790.1719 C324.4781,790.1719 325.0563,790.3125 325.525,790.5625 C325.9938,790.8281 326.1656,791.0156 326.2281,791.375 C326.3531,792.0469 326.6031,792.2969 327.1344,792.2969 C327.4156,792.2969 327.6969,792.1563 327.8844,791.9375 C328.0094,791.7656 328.0563,791.5938 328.0563,791.1563 L328.0563,789.7969 C328.0563,789.375 328.0406,789.2344 327.9156,789.0625 C327.7438,788.8125 327.4625,788.6563 327.1344,788.6563 C326.8219,788.6563 326.6188,788.7656 326.4,789.0313 C325.2281,788.5313 324.7906,788.4219 323.8375,788.4219 C321.1656,788.4219 319.15,790.4375 319.15,793.0625 L319.15,794.1563 Z " fill="#000000"/><text fill="#000000" font-family="sans-serif" font-size="14" lengthAdjust="spacing" textLength="95.6963" x="338.15" y="798.0825">DbPrestitoDAO</text></g><!--class DbUtenteDAO--><g class="entity" data-entity="DbUtenteDAO" data-source-line="67" data-uid="ent0033" id="entity_DbUtenteDAO"><rect fill="#F1F1F1" height="32" rx="2.5" ry="2.5" style="stroke:#181818;stroke-width:0.5;" width="121.4824" x="472.26" y="777"/><ellipse cx="487.26" cy="793" fill="#ADD1B2" rx="11" ry="11" style="stroke:#181818;stroke-width:1;"/><path d="M482.26,794.1563 C482.26,796.6563 484.4006,798.4688 487.3225,798.4688 C488.5569,798.4688 489.7288,798.1719 490.4788,797.6563 C491.0881,797.2344 491.4163,796.8125 491.4163,796.4063 C491.4163,795.9375 490.9944,795.5313 490.4944,795.5313 C490.26,795.5313 490.0413,795.6094 489.8381,795.8125 C489.4006,796.25 489.4006,796.25 489.2288,796.3438 C488.7756,796.5781 488.135,796.7188 487.3694,796.7188 C485.3694,796.7188 484.0881,795.7031 484.0881,794.125 L484.0881,793.0781 C484.0881,791.375 485.3069,790.1719 487.01,790.1719 C487.5881,790.1719 488.1663,790.3125 488.635,790.5625 C489.1038,790.8281 489.2756,791.0156 489.3381,791.375 C489.4631,792.0469 489.7131,792.2969 490.2444,792.2969 C490.5256,792.2969 490.8069,792.1563 490.9944,791.9375 C491.1194,791.7656 491.1663,791.5938 491.1663,791.1563 L491.1663,789.7969 C491.1663,789.375 491.1506,789.2344 491.0256,789.0625 C490.8538,788.8125 490.5725,788.6563 490.2444,788.6563 C489.9319,788.6563 489.7288,788.7656 489.51,789.0313 C488.3381,788.5313 487.9006,788.4219 486.9475,788.4219 C484.2756,788.4219 482.26,790.4375 482.26,793.0625 L482.26,794.1563 Z " fill="#000000"/><text fill="#000000" font-family="sans-serif" font-size="14" lengthAdjust="spacing" textLength="89.4824" x="501.26" y="798.0825">DbUtenteDAO</text></g><!--class DatabaseConfig--><g class="entity" data-entity="DatabaseConfig" data-source-line="74" data-uid="ent0035" id="entity_DatabaseConfig"><rect fill="#F1F1F1" height="32" rx="2.5" ry="2.5" style="stroke:#181818;stroke-width:0.5;" width="132.3994" x="937.8" y="644"/><ellipse cx="952.8" cy="660" fill="#ADD1B2" rx="11" ry="11" style="stroke:#181818;stroke-width:1;"/><path d="M947.8,661.1563 C947.8,663.6563 949.9406,665.4688 952.8625,665.4688 C954.0969,665.4688 955.2688,665.1719 956.0188,664.6563 C956.6281,664.2344 956.9563,663.8125 956.9563,663.4063 C956.9563,662.9375 956.5344,662.5313 956.0344,662.5313 C955.8,662.5313 955.5813,662.6094 955.3781,662.8125 C954.9406,663.25 954.9406,663.25 954.7688,663.3438 C954.3156,663.5781 953.675,663.7188 952.9094,663.7188 C950.9094,663.7188 949.6281,662.7031 949.6281,661.125 L949.6281,660.0781 C949.6281,658.375 950.8469,657.1719 952.55,657.1719 C953.1281,657.1719 953.7063,657.3125 954.175,657.5625 C954.6438,657.8281 954.8156,658.0156 954.8781,658.375 C955.0031,659.0469 955.2531,659.2969 955.7844,659.2969 C956.0656,659.2969 956.3469,659.1563 956.5344,658.9375 C956.6594,658.7656 956.7063,658.5938 956.7063,658.1563 L956.7063,656.7969 C956.7063,656.375 956.6906,656.2344 956.5656,656.0625 C956.3938,655.8125 956.1125,655.6563 955.7844,655.6563 C955.4719,655.6563 955.2688,655.7656 955.05,656.0313 C953.8781,655.5313 953.4406,655.4219 952.4875,655.4219 C949.8156,655.4219 947.8,657.4375 947.8,660.0625 L947.8,661.1563 Z " fill="#000000"/><text fill="#000000" font-family="sans-serif" font-size="14" lengthAdjust="spacing" textLength="100.3994" x="966.8" y="665.0825">DatabaseConfig</text></g><!--class AuthService--><g class="entity" data-entity="AuthService" data-source-line="75" data-uid="ent0036" id="entity_AuthService"><rect fill="#F1F1F1" height="32" rx="2.5" ry="2.5" style="stroke:#181818;stroke-width:0.5;" width="107.4824" x="1105.26" y="644"/><ellipse cx="1120.26" cy="660" fill="#ADD1B2" rx="11" ry="11" style="stroke:#181818;stroke-width:1;"/><path d="M1115.26,661.1563 C1115.26,663.6563 1117.4006,665.4688 1120.3225,665.4688 C1121.5569,665.4688 1122.7288,665.1719 1123.4788,664.6563 C1124.0881,664.2344 1124.4163,663.8125 1124.4163,663.4063 C1124.4163,662.9375 1123.9944,662.5313 1123.4944,662.5313 C1123.26,662.5313 1123.0413,662.6094 1122.8381,662.8125 C1122.4006,663.25 1122.4006,663.25 1122.2288,663.3438 C1121.7756,663.5781 1121.135,663.7188 1120.3694,663.7188 C1118.3694,663.7188 1117.0881,662.7031 1117.0881,661.125 L1117.0881,660.0781 C1117.0881,658.375 1118.3069,657.1719 1120.01,657.1719 C1120.5881,657.1719 1121.1663,657.3125 1121.635,657.5625 C1122.1038,657.8281 1122.2756,658.0156 1122.3381,658.375 C1122.4631,659.0469 1122.7131,659.2969 1123.2444,659.2969 C1123.5256,659.2969 1123.8069,659.1563 1123.9944,658.9375 C1124.1194,658.7656 1124.1663,658.5938 1124.1663,658.1563 L1124.1663,656.7969 C1124.1663,656.375 1124.1506,656.2344 1124.0256,656.0625 C1123.8538,655.8125 1123.5725,655.6563 1123.2444,655.6563 C1122.9319,655.6563 1122.7288,655.7656 1122.51,656.0313 C1121.3381,655.5313 1120.9006,655.4219 1119.9475,655.4219 C1117.2756,655.4219 1115.26,657.4375 1115.26,660.0625 L1115.26,661.1563 Z " fill="#000000"/><text fill="#000000" font-family="sans-serif" font-size="14" lengthAdjust="spacing" textLength="75.4824" x="1134.26" y="665.0825">AuthService</text></g><!--class SessionContext--><g class="entity" data-entity="SessionContext" data-source-line="76" data-uid="ent0037" id="entity_SessionContext"><rect fill="#F1F1F1" height="32" rx="2.5" ry="2.5" style="stroke:#181818;stroke-width:0.5;" width="130.0547" x="931.97" y="777"/><ellipse cx="946.97" cy="793" fill="#ADD1B2" rx="11" ry="11" style="stroke:#181818;stroke-width:1;"/><path d="M941.97,794.1563 C941.97,796.6563 944.1106,798.4688 947.0325,798.4688 C948.2669,798.4688 949.4388,798.1719 950.1888,797.6563 C950.7981,797.2344 951.1263,796.8125 951.1263,796.4063 C951.1263,795.9375 950.7044,795.5313 950.2044,795.5313 C949.97,795.5313 949.7513,795.6094 949.5481,795.8125 C949.1106,796.25 949.1106,796.25 948.9388,796.3438 C948.4856,796.5781 947.845,796.7188 947.0794,796.7188 C945.0794,796.7188 943.7981,795.7031 943.7981,794.125 L943.7981,793.0781 C943.7981,791.375 945.0169,790.1719 946.72,790.1719 C947.2981,790.1719 947.8763,790.3125 948.345,790.5625 C948.8138,790.8281 948.9856,791.0156 949.0481,791.375 C949.1731,792.0469 949.4231,792.2969 949.9544,792.2969 C950.2356,792.2969 950.5169,792.1563 950.7044,791.9375 C950.8294,791.7656 950.8763,791.5938 950.8763,791.1563 L950.8763,789.7969 C950.8763,789.375 950.8606,789.2344 950.7356,789.0625 C950.5638,788.8125 950.2825,788.6563 949.9544,788.6563 C949.6419,788.6563 949.4388,788.7656 949.22,789.0313 C948.0481,788.5313 947.6106,788.4219 946.6575,788.4219 C943.9856,788.4219 941.97,790.4375 941.97,793.0625 L941.97,794.1563 Z " fill="#000000"/><text fill="#000000" font-family="sans-serif" font-size="14" lengthAdjust="spacing" textLength="98.0547" x="960.97" y="798.0825">SessionContext</text></g><!--class AppPreferences--><g class="entity" data-entity="AppPreferences" data-source-line="77" data-uid="ent0038" id="entity_AppPreferences"><rect fill="#F1F1F1" height="32" rx="2.5" ry="2.5" style="stroke:#181818;stroke-width:0.5;" width="132.3926" x="770.8" y="644"/><ellipse cx="785.8" cy="660" fill="#ADD1B2" rx="11" ry="11" style="stroke:#181818;stroke-width:1;"/><path d="M780.8,661.1563 C780.8,663.6563 782.9406,665.4688 785.8625,665.4688 C787.0969,665.4688 788.2688,665.1719 789.0188,664.6563 C789.6281,664.2344 789.9563,663.8125 789.9563,663.4063 C789.9563,662.9375 789.5344,662.5313 789.0344,662.5313 C788.8,662.5313 788.5813,662.6094 788.3781,662.8125 C787.9406,663.25 787.9406,663.25 787.7688,663.3438 C787.3156,663.5781 786.675,663.7188 785.9094,663.7188 C783.9094,663.7188 782.6281,662.7031 782.6281,661.125 L782.6281,660.0781 C782.6281,658.375 783.8469,657.1719 785.55,657.1719 C786.1281,657.1719 786.7063,657.3125 787.175,657.5625 C787.6438,657.8281 787.8156,658.0156 787.8781,658.375 C788.0031,659.0469 788.2531,659.2969 788.7844,659.2969 C789.0656,659.2969 789.3469,659.1563 789.5344,658.9375 C789.6594,658.7656 789.7063,658.5938 789.7063,658.1563 L789.7063,656.7969 C789.7063,656.375 789.6906,656.2344 789.5656,656.0625 C789.3938,655.8125 789.1125,655.6563 788.7844,655.6563 C788.4719,655.6563 788.2688,655.7656 788.05,656.0313 C786.8781,655.5313 786.4406,655.4219 785.4875,655.4219 C782.8156,655.4219 780.8,657.4375 780.8,660.0625 L780.8,661.1563 Z " fill="#000000"/><text fill="#000000" font-family="sans-serif" font-size="14" lengthAdjust="spacing" textLength="100.3926" x="799.8" y="665.0825">AppPreferences</text></g><!--class EventBus--><g class="entity" data-entity="EventBus" data-source-line="79" data-uid="ent0039" id="entity_EventBus"><rect fill="#F1F1F1" height="32" rx="2.5" ry="2.5" style="stroke:#181818;stroke-width:0.5;" width="91.9238" x="1535.04" y="644"/><ellipse cx="1550.04" cy="660" fill="#ADD1B2" rx="11" ry="11" style="stroke:#181818;stroke-width:1;"/><path d="M1545.04,661.1563 C1545.04,663.6563 1547.1806,665.4688 1550.1025,665.4688 C1551.3369,665.4688 1552.5088,665.1719 1553.2588,664.6563 C1553.8681,664.2344 1554.1963,663.8125 1554.1963,663.4063 C1554.1963,662.9375 1553.7744,662.5313 1553.2744,662.5313 C1553.04,662.5313 1552.8213,662.6094 1552.6181,662.8125 C1552.1806,663.25 1552.1806,663.25 1552.0088,663.3438 C1551.5556,663.5781 1550.915,663.7188 1550.1494,663.7188 C1548.1494,663.7188 1546.8681,662.7031 1546.8681,661.125 L1546.8681,660.0781 C1546.8681,658.375 1548.0869,657.1719 1549.79,657.1719 C1550.3681,657.1719 1550.9463,657.3125 1551.415,657.5625 C1551.8838,657.8281 1552.0556,658.0156 1552.1181,658.375 C1552.2431,659.0469 1552.4931,659.2969 1553.0244,659.2969 C1553.3056,659.2969 1553.5869,659.1563 1553.7744,658.9375 C1553.8994,658.7656 1553.9463,658.5938 1553.9463,658.1563 L1553.9463,656.7969 C1553.9463,656.375 1553.9306,656.2344 1553.8056,656.0625 C1553.6338,655.8125 1553.3525,655.6563 1553.0244,655.6563 C1552.7119,655.6563 1552.5088,655.7656 1552.29,656.0313 C1551.1181,655.5313 1550.6806,655.4219 1549.7275,655.4219 C1547.0556,655.4219 1545.04,657.4375 1545.04,660.0625 L1545.04,661.1563 Z " fill="#000000"/><text fill="#000000" font-family="sans-serif" font-size="14" lengthAdjust="spacing" textLength="59.9238" x="1564.04" y="665.0825">EventBus</text></g><!--class CsvExporter--><g class="entity" data-entity="CsvExporter" data-source-line="80" data-uid="ent0040" id="entity_CsvExporter"><rect fill="#F1F1F1" height="32" rx="2.5" ry="2.5" style="stroke:#181818;stroke-width:0.5;" width="109.0205" x="1391.49" y="644"/><ellipse cx="1406.49" cy="660" fill="#ADD1B2" rx="11" ry="11" style="stroke:#181818;stroke-width:1;"/><path d="M1401.49,661.1563 C1401.49,663.6563 1403.6306,665.4688 1406.5525,665.4688 C1407.7869,665.4688 1408.9588,665.1719 1409.7088,664.6563 C1410.3181,664.2344 1410.6463,663.8125 1410.6463,663.4063 C1410.6463,662.9375 1410.2244,662.5313 1409.7244,662.5313 C1409.49,662.5313 1409.2713,662.6094 1409.0681,662.8125 C1408.6306,663.25 1408.6306,663.25 1408.4588,663.3438 C1408.0056,663.5781 1407.365,663.7188 1406.5994,663.7188 C1404.5994,663.7188 1403.3181,662.7031 1403.3181,661.125 L1403.3181,660.0781 C1403.3181,658.375 1404.5369,657.1719 1406.24,657.1719 C1406.8181,657.1719 1407.3963,657.3125 1407.865,657.5625 C1408.3338,657.8281 1408.5056,658.0156 1408.5681,658.375 C1408.6931,659.0469 1408.9431,659.2969 1409.4744,659.2969 C1409.7556,659.2969 1410.0369,659.1563 1410.2244,658.9375 C1410.3494,658.7656 1410.3963,658.5938 1410.3963,658.1563 L1410.3963,656.7969 C1410.3963,656.375 1410.3806,656.2344 1410.2556,656.0625 C1410.0838,655.8125 1409.8025,655.6563 1409.4744,655.6563 C1409.1619,655.6563 1408.9588,655.7656 1408.74,656.0313 C1407.5681,655.5313 1407.1306,655.4219 1406.1775,655.4219 C1403.5056,655.4219 1401.49,657.4375 1401.49,660.0625 L1401.49,661.1563 Z " fill="#000000"/><text fill="#000000" font-family="sans-serif" font-size="14" lengthAdjust="spacing" textLength="77.0205" x="1420.49" y="665.0825">CsvExporter</text></g><!--class CsvImporter--><g class="entity" data-entity="CsvImporter" data-source-line="81" data-uid="ent0041" id="entity_CsvImporter"><rect fill="#F1F1F1" height="32" rx="2.5" ry="2.5" style="stroke:#181818;stroke-width:0.5;" width="108.2344" x="1247.88" y="644"/><ellipse cx="1262.88" cy="660" fill="#ADD1B2" rx="11" ry="11" style="stroke:#181818;stroke-width:1;"/><path d="M1257.88,661.1563 C1257.88,663.6563 1260.0206,665.4688 1262.9425,665.4688 C1264.1769,665.4688 1265.3488,665.1719 1266.0988,664.6563 C1266.7081,664.2344 1267.0363,663.8125 1267.0363,663.4063 C1267.0363,662.9375 1266.6144,662.5313 1266.1144,662.5313 C1265.88,662.5313 1265.6613,662.6094 1265.4581,662.8125 C1265.0206,663.25 1265.0206,663.25 1264.8488,663.3438 C1264.3956,663.5781 1263.755,663.7188 1262.9894,663.7188 C1260.9894,663.7188 1259.7081,662.7031 1259.7081,661.125 L1259.7081,660.0781 C1259.7081,658.375 1260.9269,657.1719 1262.63,657.1719 C1263.2081,657.1719 1263.7863,657.3125 1264.255,657.5625 C1264.7238,657.8281 1264.8956,658.0156 1264.9581,658.375 C1265.0831,659.0469 1265.3331,659.2969 1265.8644,659.2969 C1266.1456,659.2969 1266.4269,659.1563 1266.6144,658.9375 C1266.7394,658.7656 1266.7863,658.5938 1266.7863,658.1563 L1266.7863,656.7969 C1266.7863,656.375 1266.7706,656.2344 1266.6456,656.0625 C1266.4738,655.8125 1266.1925,655.6563 1265.8644,655.6563 C1265.5519,655.6563 1265.3488,655.7656 1265.13,656.0313 C1263.9581,655.5313 1263.5206,655.4219 1262.5675,655.4219 C1259.8956,655.4219 1257.88,657.4375 1257.88,660.0625 L1257.88,661.1563 Z " fill="#000000"/><text fill="#000000" font-family="sans-serif" font-size="14" lengthAdjust="spacing" textLength="76.2344" x="1276.88" y="665.0825">CsvImporter</text></g><!--link BibliotecaApp to StartupDialog--><g class="link" data-entity-1="BibliotecaApp" data-entity-2="StartupDialog" data-source-line="87" data-uid="lnk42" id="link_BibliotecaApp_StartupDialog"><path codeLine="87" d="M1464.99,93.45 C1483.32,100.37 1502.79,109.99 1518,123 C1545.86,146.84 1562.3508,181.1495 1571.0908,202.9895" fill="none" id="BibliotecaApp-to-StartupDialog" style="stroke:#181818;stroke-width:1;"/><polygon fill="#181818" points="1573.32,208.56,1573.6898,198.7181,1571.4623,203.9179,1566.2625,201.6904,1573.32,208.56" style="stroke:#181818;stroke-width:1;"/><text fill="#000000" font-family="sans-serif" font-size="13" lengthAdjust="spacing" textLength="39.73" x="1534.63" y="136.1938">mostra</text></g><!--link StartupDialog to StartupResult--><g class="link" data-entity-1="StartupDialog" data-entity-2="StartupResult" data-source-line="88" data-uid="lnk43" id="link_StartupDialog_StartupResult"><path codeLine="88" d="M1576.97,241.21 C1575.85,250.39 1574.57,262.35 1574,273 C1572.39,303.33 1574.6313,332.821 1576.6513,352.631" fill="none" id="StartupDialog-to-StartupResult" style="stroke:#181818;stroke-width:1;"/><polygon fill="#181818" points="1577.26,358.6,1580.3264,349.2407,1576.7528,353.6258,1572.3677,350.0522,1577.26,358.6" style="stroke:#181818;stroke-width:1;"/><text fill="#000000" font-family="sans-serif" font-size="13" lengthAdjust="spacing" textLength="117.0508" x="1575" y="286.1938">restituisce dati avvio</text></g><!--link BibliotecaApp to DatabaseConfig--><g class="link" data-entity-1="BibliotecaApp" data-entity-2="DatabaseConfig" data-source-line="90" data-uid="lnk44" id="link_BibliotecaApp_DatabaseConfig"><path codeLine="90" d="M1348.83,86.9 C1237.29,105.35 1007,152.13 1007,224 C1007,224 1007,224 1007,526 C1007,568.73 1005.6414,613.1637 1004.7714,637.8437" fill="none" id="BibliotecaApp-to-DatabaseConfig" style="stroke:#181818;stroke-width:1;"/><polygon fill="#181818" points="1004.56,643.84,1008.8746,634.9865,1004.7361,638.8431,1000.8795,634.7047,1004.56,643.84" style="stroke:#181818;stroke-width:1;"/><text fill="#000000" font-family="sans-serif" font-size="13" lengthAdjust="spacing" textLength="75.1499" x="1008" y="380.1938">configura DB</text></g><!--link BibliotecaApp to AppPreferences--><g class="link" data-entity-1="BibliotecaApp" data-entity-2="AppPreferences" data-source-line="91" data-uid="lnk45" id="link_BibliotecaApp_AppPreferences"><path codeLine="91" d="M1348.84,80.55 C1202.44,88.45 835,118.78 835,224 C835,224 835,224 835,526 C835,568.72 835.8991,613.1517 836.4791,637.8417" fill="none" id="BibliotecaApp-to-AppPreferences" style="stroke:#181818;stroke-width:1;"/><polygon fill="#181818" points="836.62,643.84,840.4075,634.7485,836.5026,638.8414,832.4097,634.9364,836.62,643.84" style="stroke:#181818;stroke-width:1;"/><text fill="#000000" font-family="sans-serif" font-size="13" lengthAdjust="spacing" textLength="100.439" x="836" y="380.1938">carica preferenze</text></g><!--link BibliotecaApp to AuthService--><g class="link" data-entity-1="BibliotecaApp" data-entity-2="AuthService" data-source-line="92" data-uid="lnk46" id="link_BibliotecaApp_AuthService"><path codeLine="92" d="M1348.77,85.69 C1273.71,99.14 1154,134.61 1154,224 C1154,224 1154,224 1154,526 C1154,568.75 1156.2581,613.1803 1157.7081,637.8603" fill="none" id="BibliotecaApp-to-AuthService" style="stroke:#181818;stroke-width:1;"/><polygon fill="#181818" points="1158.06,643.85,1161.5253,634.6309,1157.7667,638.8586,1153.539,635.1001,1158.06,643.85" style="stroke:#181818;stroke-width:1;"/><text fill="#000000" font-family="sans-serif" font-size="13" lengthAdjust="spacing" textLength="117.8188" x="1155" y="380.1938">autentica utente app</text></g><!--link BibliotecaApp to SessionContext--><g class="link" data-entity-1="BibliotecaApp" data-entity-2="SessionContext" data-source-line="93" data-uid="lnk47" id="link_BibliotecaApp_SessionContext"><path codeLine="93" d="M1348.71,77.67 C1241.82,78.68 1010.83,88.21 827,147 C744.12,173.5 647,136.99 647,224 C647,224 647,224 647,574 C647,706.61 824.3956,760.2878 925.6956,780.4678" fill="none" id="BibliotecaApp-to-SessionContext" style="stroke:#181818;stroke-width:1;"/><polygon fill="#181818" points="931.58,781.64,923.5349,775.9587,926.6764,780.6631,921.972,783.8046,931.58,781.64" style="stroke:#181818;stroke-width:1;"/><text fill="#000000" font-family="sans-serif" font-size="13" lengthAdjust="spacing" textLength="163.3062" x="648" y="436.1938">inizializza contesto sessione</text></g><!--link BibliotecaApp to DaoFactory--><g class="link" data-entity-1="BibliotecaApp" data-entity-2="DaoFactory" data-source-line="95" data-uid="lnk48" id="link_BibliotecaApp_DaoFactory"><path codeLine="95" d="M1348.78,78.99 C1108.87,83.77 222,109.19 222,224 C222,224 222,224 222,661 C222,702.85 222,746.21 222,770.67" fill="none" id="BibliotecaApp-to-DaoFactory" style="stroke:#181818;stroke-width:1;"/><polygon fill="#181818" points="222,776.67,226,767.67,222,771.67,218,767.67,222,776.67" style="stroke:#181818;stroke-width:1;"/><text fill="#000000" font-family="sans-serif" font-size="13" lengthAdjust="spacing" textLength="113.439" x="223" y="436.1938">ottiene factory DAO</text></g><!--link BibliotecaApp to AppContext--><g class="link" data-entity-1="BibliotecaApp" data-entity-2="AppContext" data-source-line="96" data-uid="lnk49" id="link_BibliotecaApp_AppContext"><path codeLine="96" d="M1467.21,81.09 C1565.16,86.82 1752.18,100.58 1772,123 C1776.71,128.33 1772.86,131.94 1772,139 C1764.61,199.89 1748.44,212.4 1739,273 C1725.22,361.47 1722.6861,463.2005 1722.1861,502.6205" fill="none" id="BibliotecaApp-to-AppContext" style="stroke:#181818;stroke-width:1;"/><polygon fill="#181818" points="1722.11,508.62,1726.2238,499.6715,1722.1734,503.6204,1718.2245,499.57,1722.11,508.62" style="stroke:#181818;stroke-width:1;"/><text fill="#000000" font-family="sans-serif" font-size="13" lengthAdjust="spacing" textLength="118.4917" x="1740" y="286.1938">crea contesto servizi</text></g><!--link BibliotecaApp to UiFacade--><g class="link" data-entity-1="BibliotecaApp" data-entity-2="UiFacade" data-source-line="97" data-uid="lnk50" id="link_BibliotecaApp_UiFacade"><path codeLine="97" d="M1467.17,77.73 C1567.15,78.35 1764.11,84.59 1820,123 C1849.58,143.33 1861.9865,179.9665 1867.4865,202.8265" fill="none" id="BibliotecaApp-to-UiFacade" style="stroke:#181818;stroke-width:1;"/><polygon fill="#181818" points="1868.89,208.66,1870.6737,198.974,1867.7204,203.7987,1862.8957,200.8454,1868.89,208.66" style="stroke:#181818;stroke-width:1;"/><text fill="#000000" font-family="sans-serif" font-size="13" lengthAdjust="spacing" textLength="90.3145" x="1836.7" y="136.1938">crea facciata UI</text></g><!--link BibliotecaApp to ContentManager--><g class="link" data-entity-1="BibliotecaApp" data-entity-2="ContentManager" data-source-line="98" data-uid="lnk51" id="link_BibliotecaApp_ContentManager"><path codeLine="98" d="M1395.99,93.28 C1390.24,101.57 1383.97,112.29 1381,123 C1379.1,129.85 1379.59,132.03 1381,139 C1386.2,164.6 1396.5334,186.7729 1405.4234,203.3429" fill="none" id="BibliotecaApp-to-ContentManager" style="stroke:#181818;stroke-width:1;"/><polygon fill="#181818" points="1408.26,208.63,1407.5298,198.8082,1405.8962,204.2241,1400.4803,202.5904,1408.26,208.63" style="stroke:#181818;stroke-width:1;"/><text fill="#000000" font-family="sans-serif" font-size="13" lengthAdjust="spacing" textLength="131.498" x="1382" y="136.1938">inizializza UI principale</text></g><!--link ContentManager to UiFacade--><g class="link" data-entity-1="ContentManager" data-entity-2="UiFacade" data-source-line="100" data-uid="lnk52" id="link_ContentManager_UiFacade"><path codeLine="100" d="M1428.81,208.79 C1443.68,189.9 1471.16,159.66 1503,147 C1531.06,135.85 1737.25,133.25 1771,145 C1807.13,157.57 1835.9961,184.6167 1853.8861,204.1367" fill="none" id="ContentManager-to-UiFacade" style="stroke:#181818;stroke-width:1;"/><polygon fill="#181818" points="1857.94,208.56,1854.808,199.2224,1854.5617,204.8739,1848.9102,204.6277,1857.94,208.56" style="stroke:#181818;stroke-width:1;"/><text fill="#000000" font-family="sans-serif" font-size="13" lengthAdjust="spacing" textLength="166.2134" x="1604" y="136.1938">invoca operazioni applicative</text></g><!--link ContentManager to EventBus--><g class="link" data-entity-1="ContentManager" data-entity-2="EventBus" data-source-line="101" data-uid="lnk53" id="link_ContentManager_EventBus"><path codeLine="101" d="M1422.85,241.23 C1426.38,250.43 1430.96,262.38 1435,273 C1489.79,416.97 1553.4155,585.7549 1573.0655,637.9349" fill="none" id="ContentManager-to-EventBus" style="stroke:#181818;stroke-width:1;"/><polygon fill="#181818" points="1575.18,643.55,1575.7516,633.7177,1573.4179,638.8708,1568.2648,636.5371,1575.18,643.55" style="stroke:#181818;stroke-width:1;"/><text fill="#000000" font-family="sans-serif" font-size="13" lengthAdjust="spacing" textLength="122.8271" x="1498.58" y="436.1938">osserva cambiamenti</text></g><!--link ContentManager to CsvExporter--><g class="link" data-entity-1="ContentManager" data-entity-2="CsvExporter" data-source-line="102" data-uid="lnk54" id="link_ContentManager_CsvExporter"><path codeLine="102" d="M1414.6,241.27 C1409.55,274.31 1397.96,354.94 1394,423 C1389.05,508.03 1422.4116,601.0332 1437.3616,638.2132" fill="none" id="ContentManager-to-CsvExporter" style="stroke:#181818;stroke-width:1;"/><polygon fill="#181818" points="1439.6,643.78,1439.9536,633.9375,1437.7347,639.141,1432.5312,636.922,1439.6,643.78" style="stroke:#181818;stroke-width:1;"/><text fill="#000000" font-family="sans-serif" font-size="13" lengthAdjust="spacing" textLength="66.4727" x="1395" y="436.1938">export CSV</text></g><!--link ContentManager to CsvImporter--><g class="link" data-entity-1="ContentManager" data-entity-2="CsvImporter" data-source-line="103" data-uid="lnk55" id="link_ContentManager_CsvImporter"><path codeLine="103" d="M1406.49,241.47 C1385.3,273.6 1337.77,350.63 1318,423 C1295.92,503.81 1298.5379,599.6992 1300.6479,637.7592" fill="none" id="ContentManager-to-CsvImporter" style="stroke:#181818;stroke-width:1;"/><polygon fill="#181818" points="1300.98,643.75,1304.4757,634.5424,1300.7032,638.7577,1296.4879,634.9852,1300.98,643.75" style="stroke:#181818;stroke-width:1;"/><text fill="#000000" font-family="sans-serif" font-size="13" lengthAdjust="spacing" textLength="66.46" x="1319" y="436.1938">import CSV</text></g><!--link UiFacade to BookController--><g class="link" data-entity-1="UiFacade" data-entity-2="BookController" data-source-line="108" data-uid="lnk56" id="link_UiFacade_BookController"><path codeLine="108" d="M1918.04,232.67 C1968.94,241.54 2052.07,260.52 2115,297 C2143.02,313.24 2164.9012,336.7022 2179.2512,354.0922" fill="none" id="UiFacade-to-BookController" style="stroke:#181818;stroke-width:1;"/><polygon fill="#181818" points="2183.07,358.72,2180.427,349.2324,2179.8877,354.8635,2174.2566,354.3242,2183.07,358.72" style="stroke:#181818;stroke-width:1;"/></g><!--link UiFacade to PrestitoController--><g class="link" data-entity-1="UiFacade" data-entity-2="PrestitoController" data-source-line="109" data-uid="lnk57" id="link_UiFacade_PrestitoController"><path codeLine="109" d="M1870.66,241.28 C1868.17,269.64 1863.375,324.143 1860.875,352.603" fill="none" id="UiFacade-to-PrestitoController" style="stroke:#181818;stroke-width:1;"/><polygon fill="#181818" points="1860.35,358.58,1865.1222,349.9645,1860.7875,353.5992,1857.1529,349.2645,1860.35,358.58" style="stroke:#181818;stroke-width:1;"/></g><!--link UiFacade to UtenteController--><g class="link" data-entity-1="UiFacade" data-entity-2="UtenteController" data-source-line="110" data-uid="lnk58" id="link_UiFacade_UtenteController"><path codeLine="110" d="M1888.42,241.28 C1918.89,269.64 1979.4578,326.0323 2010.0378,354.4923" fill="none" id="UiFacade-to-UtenteController" style="stroke:#181818;stroke-width:1;"/><polygon fill="#181818" points="2014.43,358.58,2010.5669,349.5204,2010.7699,355.1736,2005.1167,355.3766,2014.43,358.58" style="stroke:#181818;stroke-width:1;"/></g><!--link BookController to BookService--><g class="link" data-entity-1="BookController" data-entity-2="BookService" data-source-line="115" data-uid="lnk59" id="link_BookController_BookService"><path codeLine="115" d="M2193.55,391.28 C2190.87,419.64 2185.7146,474.1466 2183.0246,502.6066" fill="none" id="BookController-to-BookService" style="stroke:#181818;stroke-width:1;"/><polygon fill="#181818" points="2182.46,508.58,2187.2891,499.9963,2182.9305,503.6022,2179.3246,499.2435,2182.46,508.58" style="stroke:#181818;stroke-width:1;"/></g><!--link PrestitoController to PrestitoService--><g class="link" data-entity-1="PrestitoController" data-entity-2="PrestitoService" data-source-line="116" data-uid="lnk60" id="link_PrestitoController_PrestitoService"><path codeLine="116" d="M1860.45,391.28 C1863.13,419.64 1868.2854,474.1466 1870.9754,502.6066" fill="none" id="PrestitoController-to-PrestitoService" style="stroke:#181818;stroke-width:1;"/><polygon fill="#181818" points="1871.54,508.58,1874.6754,499.2435,1871.0695,503.6022,1866.7109,499.9963,1871.54,508.58" style="stroke:#181818;stroke-width:1;"/></g><!--link UtenteController to UtenteService--><g class="link" data-entity-1="UtenteController" data-entity-2="UtenteService" data-source-line="117" data-uid="lnk61" id="link_UtenteController_UtenteService"><path codeLine="117" d="M2031,391.28 C2031,419.64 2031,474.12 2031,502.58" fill="none" id="UtenteController-to-UtenteService" style="stroke:#181818;stroke-width:1;"/><polygon fill="#181818" points="2031,508.58,2035,499.58,2031,503.58,2027,499.58,2031,508.58" style="stroke:#181818;stroke-width:1;"/></g><!--link BookService to BookDAO--><g class="link" data-entity-1="BookService" data-entity-2="BookDAO" data-source-line="122" data-uid="lnk62" id="link_BookService_BookDAO"><path codeLine="122" d="M2235.94,541.49 C2253.36,549.31 2265.82,560.12 2256,574 C2147.1,727.86 2027.93,637.72 1856,715 C1757.29,759.37 1747.37,804.4 1643,833 C1355.26,911.85 597.6,839.74 301,872 C290.73,873.12 285.7026,873.7632 275.3426,875.6532" fill="none" id="BookService-to-BookDAO" style="stroke:#181818;stroke-width:1;"/><polygon fill="#181818" points="269.44,876.73,279.0118,879.0498,274.3588,875.8326,277.576,871.1797,269.44,876.73" style="stroke:#181818;stroke-width:1;"/></g><!--link BookService to BookBean--><g class="link" data-entity-1="BookService" data-entity-2="BookBean" data-source-line="123" data-uid="lnk63" id="link_BookService_BookBean"><path codeLine="123" d="M2196.75,541.31 C2229.18,573 2305.46,648.41 2366,715 C2384.95,735.84 2401.977,756.271 2414.827,772.021" fill="none" id="BookService-to-BookBean" style="stroke:#181818;stroke-width:1;"/><polygon fill="#181818" points="2418.62,776.67,2416.0298,767.1678,2415.4592,772.7958,2409.8312,772.2252,2418.62,776.67" style="stroke:#181818;stroke-width:1;"/></g><!--link BookService to Book--><g class="link" data-entity-1="BookService" data-entity-2="Book" data-source-line="124" data-uid="lnk64" id="link_BookService_Book"><path codeLine="124" d="M2236.47,531.94 C2279.96,538.67 2340.52,552.79 2386,582 C2465.25,632.91 2517.7938,731.9812 2536.4538,771.2312" fill="none" id="BookService-to-Book" style="stroke:#181818;stroke-width:1;"/><polygon fill="#181818" points="2539.03,776.65,2538.7783,766.8044,2536.8832,772.1343,2531.5532,770.2393,2539.03,776.65" style="stroke:#181818;stroke-width:1;"/></g><!--link BookService to EventBus--><g class="link" data-entity-1="BookService" data-entity-2="EventBus" data-source-line="125" data-uid="lnk65" id="link_BookService_EventBus"><path codeLine="125" d="M2156.88,541.37 C2143.06,549.53 2125.11,559.07 2108,565 C1936.76,624.34 1726.599,647.3188 1633.319,655.1388" fill="none" id="BookService-to-EventBus" style="stroke:#181818;stroke-width:1;"/><polygon fill="#181818" points="1627.34,655.64,1636.6427,658.8742,1632.3225,655.2223,1635.9744,650.9021,1627.34,655.64" style="stroke:#181818;stroke-width:1;"/></g><!--link PrestitoService to PrestitoDAO--><g class="link" data-entity-1="PrestitoService" data-entity-2="PrestitoDAO" data-source-line="127" data-uid="lnk66" id="link_PrestitoService_PrestitoDAO"><path codeLine="127" d="M1848.17,541.5 C1832.66,550.26 1811.91,560.36 1792,565 C1762.48,571.87 725.33,563.93 701,582 C605.86,652.66 699.72,754.43 611,833 C597.34,845.1 500.2135,864.2885 434.2635,876.2585" fill="none" id="PrestitoService-to-PrestitoDAO" style="stroke:#181818;stroke-width:1;"/><polygon fill="#181818" points="428.36,877.33,437.9297,879.6584,433.2796,876.4371,436.501,871.787,428.36,877.33" style="stroke:#181818;stroke-width:1;"/></g><!--link PrestitoService to UtenteDAO--><g class="link" data-entity-1="PrestitoService" data-entity-2="UtenteDAO" data-source-line="128" data-uid="lnk67" id="link_PrestitoService_UtenteDAO"><path codeLine="128" d="M1848.15,541.44 C1832.64,550.19 1811.9,560.29 1792,565 C1763.97,571.64 778.09,564.78 755,582 C657.87,654.44 757.58,755.24 673,842 C652.27,863.26 626.9088,873.1961 600.1488,879.1061" fill="none" id="PrestitoService-to-UtenteDAO" style="stroke:#181818;stroke-width:1;"/><polygon fill="#181818" points="594.29,880.4,603.9408,882.365,599.1723,879.3217,602.2156,874.5532,594.29,880.4" style="stroke:#181818;stroke-width:1;"/></g><!--link PrestitoService to PrestitoBean--><g class="link" data-entity-1="PrestitoService" data-entity-2="PrestitoBean" data-source-line="129" data-uid="lnk68" id="link_PrestitoService_PrestitoBean"><path codeLine="129" d="M1899.39,541.3 C1915.89,550.81 1937.62,563.23 1957,574 C2072.24,638.04 2113.06,635.18 2218,715 C2242.35,733.52 2262.2177,755.5334 2275.9977,772.1334" fill="none" id="PrestitoService-to-PrestitoBean" style="stroke:#181818;stroke-width:1;"/><polygon fill="#181818" points="2279.83,776.75,2277.1592,767.2702,2276.6364,772.9028,2271.0037,772.38,2279.83,776.75" style="stroke:#181818;stroke-width:1;"/></g><!--link PrestitoService to Prestito--><g class="link" data-entity-1="PrestitoService" data-entity-2="Prestito" data-source-line="130" data-uid="lnk69" id="link_PrestitoService_Prestito"><path codeLine="130" d="M1857.04,541.39 C1849.39,549.89 1841.03,561.12 1837,573 C1822.3,616.35 1809.79,639.19 1837,676 C1864.91,713.76 1892.16,696.82 1938,707 C1962.97,712.55 1972.96,702.02 1995,715 C2019.51,729.44 2034.3643,753.2946 2043.3743,771.2946" fill="none" id="PrestitoService-to-Prestito" style="stroke:#181818;stroke-width:1;"/><polygon fill="#181818" points="2046.06,776.66,2045.6084,766.8215,2043.8219,772.1889,2038.4546,770.4024,2046.06,776.66" style="stroke:#181818;stroke-width:1;"/></g><!--link PrestitoService to Book--><g class="link" data-entity-1="PrestitoService" data-entity-2="Book" data-source-line="131" data-uid="lnk70" id="link_PrestitoService_Book"><path codeLine="131" d="M1899.49,541.48 C1914.9,549.78 1934.98,559.42 1954,565 C2013.72,582.51 2032.26,568.43 2093,582 C2098.77,583.29 2492.34,711.37 2497,715 C2518.01,731.34 2530.1666,753.8937 2537.6766,771.2437" fill="none" id="PrestitoService-to-Book" style="stroke:#181818;stroke-width:1;"/><polygon fill="#181818" points="2540.06,776.75,2540.1557,766.9016,2538.0738,772.1614,2532.814,770.0795,2540.06,776.75" style="stroke:#181818;stroke-width:1;"/></g><!--link PrestitoService to Utente--><g class="link" data-entity-1="PrestitoService" data-entity-2="Utente" data-source-line="132" data-uid="lnk71" id="link_PrestitoService_Utente"><path codeLine="132" d="M1871.61,541.33 C1869.79,571.74 1870.42,639.84 1908,676 C1973.89,739.4 2033.27,665.28 2110,715 C2133.16,730.01 2146.7394,753.3198 2155.0194,771.1198" fill="none" id="PrestitoService-to-Utente" style="stroke:#181818;stroke-width:1;"/><polygon fill="#181818" points="2157.55,776.56,2157.3809,766.7126,2155.4412,772.0265,2150.1273,770.0868,2157.55,776.56" style="stroke:#181818;stroke-width:1;"/></g><!--link PrestitoService to EventBus--><g class="link" data-entity-1="PrestitoService" data-entity-2="EventBus" data-source-line="133" data-uid="lnk72" id="link_PrestitoService_EventBus"><path codeLine="133" d="M1847.32,541.38 C1831.85,549.86 1811.43,559.73 1792,565 C1749.83,576.45 1734.81,557.36 1694,573 C1653.48,588.53 1619.4787,619.0737 1599.5487,639.3237" fill="none" id="PrestitoService-to-EventBus" style="stroke:#181818;stroke-width:1;"/><polygon fill="#181818" points="1595.34,643.6,1604.5039,639.9914,1598.8473,640.0364,1598.8022,634.3797,1595.34,643.6" style="stroke:#181818;stroke-width:1;"/></g><!--link UtenteService to UtenteDAO--><g class="link" data-entity-1="UtenteService" data-entity-2="UtenteDAO" data-source-line="135" data-uid="lnk73" id="link_UtenteService_UtenteDAO"><path codeLine="135" d="M2018.26,541.37 C1973.5,594.06 1816.7,767.78 1643,833 C1544.24,870.08 804.7894,883.2633 599.9494,886.2233" fill="none" id="UtenteService-to-UtenteDAO" style="stroke:#181818;stroke-width:1;"/><polygon fill="#181818" points="593.95,886.31,603.0069,890.1795,598.9495,886.2378,602.8913,882.1804,593.95,886.31" style="stroke:#181818;stroke-width:1;"/></g><!--link UtenteService to UtenteBean--><g class="link" data-entity-1="UtenteService" data-entity-2="UtenteBean" data-source-line="136" data-uid="lnk74" id="link_UtenteService_UtenteBean"><path codeLine="136" d="M2024.84,541.45 C2006.11,588.46 1952.1514,723.8664 1933.3914,770.9364" fill="none" id="UtenteService-to-UtenteBean" style="stroke:#181818;stroke-width:1;"/><polygon fill="#181818" points="1931.17,776.51,1938.2179,769.6305,1933.0212,771.8653,1930.7863,766.6686,1931.17,776.51" style="stroke:#181818;stroke-width:1;"/></g><!--link UtenteService to Utente--><g class="link" data-entity-1="UtenteService" data-entity-2="Utente" data-source-line="137" data-uid="lnk75" id="link_UtenteService_Utente"><path codeLine="137" d="M2038.73,541.45 C2062.23,588.46 2130.0372,724.0732 2153.5672,771.1432" fill="none" id="UtenteService-to-Utente" style="stroke:#181818;stroke-width:1;"/><polygon fill="#181818" points="2156.25,776.51,2155.8036,766.6713,2154.0143,772.0377,2148.6479,770.2484,2156.25,776.51" style="stroke:#181818;stroke-width:1;"/></g><!--link UtenteService to EventBus--><g class="link" data-entity-1="UtenteService" data-entity-2="EventBus" data-source-line="138" data-uid="lnk76" id="link_UtenteService_EventBus"><path codeLine="138" d="M2004.22,541.41 C1989.71,549.29 1971.26,558.54 1954,565 C1839.84,607.69 1704.7862,636.1688 1633.2562,649.6488" fill="none" id="UtenteService-to-EventBus" style="stroke:#181818;stroke-width:1;"/><polygon fill="#181818" points="1627.36,650.76,1636.9451,653.0241,1632.2735,649.834,1635.4635,645.1625,1627.36,650.76" style="stroke:#181818;stroke-width:1;"/></g><!--link AuthService to DaoFactory--><g class="link" data-entity-1="AuthService" data-entity-2="DaoFactory" data-source-line="143" data-uid="lnk77" id="link_AuthService_DaoFactory"><path codeLine="143" d="M1104.88,673.36 C1099.2,674.38 1093.5,675.29 1088,676 C1000.18,687.35 372.08,677.21 292,715 C264.06,728.19 245.3716,753.0105 233.9516,771.4305" fill="none" id="AuthService-to-DaoFactory" style="stroke:#181818;stroke-width:1;"/><polygon fill="#181818" points="230.79,776.53,238.932,770.9885,233.4246,772.2804,232.1327,766.7731,230.79,776.53" style="stroke:#181818;stroke-width:1;"/></g><!--link AuthService to UtenteDAO--><g class="link" data-entity-1="AuthService" data-entity-2="UtenteDAO" data-source-line="144" data-uid="lnk78" id="link_AuthService_UtenteDAO"><path codeLine="144" d="M1212.99,673.77 C1357.33,708.52 1738.88,804.7 1703,842 C1664.08,882.45 820.84,886.5694 600.07,886.9594" fill="none" id="AuthService-to-UtenteDAO" style="stroke:#181818;stroke-width:1;"/><polygon fill="#181818" points="594.07,886.97,603.0771,890.9541,599.07,886.9612,603.0629,882.9541,594.07,886.97" style="stroke:#181818;stroke-width:1;"/></g><!--link AuthService to SessionContext--><g class="link" data-entity-1="AuthService" data-entity-2="SessionContext" data-source-line="145" data-uid="lnk79" id="link_AuthService_SessionContext"><path codeLine="145" d="M1140.1,676.28 C1108.97,701.46 1051.9159,747.5978 1020.6959,772.8378" fill="none" id="AuthService-to-SessionContext" style="stroke:#181818;stroke-width:1;"/><polygon fill="#181818" points="1016.03,776.61,1025.5436,774.0623,1019.9183,773.4665,1020.5141,767.8411,1016.03,776.61" style="stroke:#181818;stroke-width:1;"/></g><!--link DaoFactory to BookDAO--><g class="link" data-entity-1="DaoFactory" data-entity-2="BookDAO" data-source-line="150" data-uid="lnk80" id="link_DaoFactory_BookDAO"><path codeLine="150" d="M222,809.36 C222,826.59 222,848.38 222,865.62" fill="none" id="DaoFactory-to-BookDAO" style="stroke:#181818;stroke-width:1;"/><polygon fill="#181818" points="222,871.62,226,862.62,222,866.62,218,862.62,222,871.62" style="stroke:#181818;stroke-width:1;"/></g><!--link DaoFactory to PrestitoDAO--><g class="link" data-entity-1="DaoFactory" data-entity-2="PrestitoDAO" data-source-line="151" data-uid="lnk81" id="link_DaoFactory_PrestitoDAO"><path codeLine="151" d="M243.41,809.45 C257.09,819.14 275.33,831.69 292,842 C308.83,852.41 322.8995,860.3612 338.4695,868.7612" fill="none" id="DaoFactory-to-PrestitoDAO" style="stroke:#181818;stroke-width:1;"/><polygon fill="#181818" points="343.75,871.61,337.7284,863.8164,339.3496,869.236,333.93,870.8571,343.75,871.61" style="stroke:#181818;stroke-width:1;"/></g><!--link DaoFactory to UtenteDAO--><g class="link" data-entity-1="DaoFactory" data-entity-2="UtenteDAO" data-source-line="152" data-uid="lnk82" id="link_DaoFactory_UtenteDAO"><path codeLine="152" d="M245.45,809.37 C258.66,817.42 275.73,826.87 292,833 C327.63,846.43 421.8204,865.0072 484.0104,876.5272" fill="none" id="DaoFactory-to-UtenteDAO" style="stroke:#181818;stroke-width:1;"/><polygon fill="#181818" points="489.91,877.62,481.7891,872.0476,484.9936,876.7093,480.332,879.9138,489.91,877.62" style="stroke:#181818;stroke-width:1;"/></g><!--link DbDaoFactory to DaoFactory--><g class="link" data-entity-1="DbDaoFactory" data-entity-2="DaoFactory" data-source-line="154" data-uid="lnk83" id="link_DbDaoFactory_DaoFactory"><path codeLine="154" d="M322.7,676.28 C300.73,701.53 268.9483,738.0633 247.0383,763.2333" fill="none" id="DbDaoFactory-to-DaoFactory" style="stroke:#181818;stroke-width:1;stroke-dasharray:7,7;"/><polygon fill="none" points="235.22,776.81,251.5639,767.1727,242.5127,759.2938,235.22,776.81" style="stroke:#181818;stroke-width:1;"/></g><!--link DbBookDAO to BookDAO--><g class="link" data-entity-1="DbBookDAO" data-entity-2="BookDAO" data-source-line="155" data-uid="lnk84" id="link_DbBookDAO_BookDAO"><path codeLine="155" d="M102.61,809.36 C129.11,826.59 156.7502,844.5668 183.2602,861.8068" fill="none" id="DbBookDAO-to-BookDAO" style="stroke:#181818;stroke-width:1;stroke-dasharray:7,7;"/><polygon fill="none" points="198.35,871.62,186.5313,856.7769,179.9892,866.8367,198.35,871.62" style="stroke:#181818;stroke-width:1;"/></g><!--link DbPrestitoDAO to PrestitoDAO--><g class="link" data-entity-1="DbPrestitoDAO" data-entity-2="PrestitoDAO" data-source-line="156" data-uid="lnk85" id="link_DbPrestitoDAO_PrestitoDAO"><path codeLine="156" d="M373,809.36 C373,826.59 373,836.38 373,853.62" fill="none" id="DbPrestitoDAO-to-PrestitoDAO" style="stroke:#181818;stroke-width:1;stroke-dasharray:7,7;"/><polygon fill="none" points="373,871.62,379,853.62,367,853.62,373,871.62" style="stroke:#181818;stroke-width:1;"/></g><!--link DbUtenteDAO to UtenteDAO--><g class="link" data-entity-1="DbUtenteDAO" data-entity-2="UtenteDAO" data-source-line="157" data-uid="lnk86" id="link_DbUtenteDAO_UtenteDAO"><path codeLine="157" d="M534.49,809.36 C536.15,826.59 537.1045,836.4639 538.7745,853.7039" fill="none" id="DbUtenteDAO-to-UtenteDAO" style="stroke:#181818;stroke-width:1;stroke-dasharray:7,7;"/><polygon fill="none" points="540.51,871.62,544.7466,853.1254,532.8025,854.2824,540.51,871.62" style="stroke:#181818;stroke-width:1;"/></g><!--link CsvExporter to Book--><g class="link" data-entity-1="CsvExporter" data-entity-2="Book" data-source-line="162" data-uid="lnk87" id="link_CsvExporter_Book"><path codeLine="162" d="M1500.88,673.41 C1506.64,674.42 1512.42,675.31 1518,676 C1524.75,676.83 2491.1,711.61 2497,715 C2520.49,728.51 2532.4009,752.6944 2539.0909,771.0044" fill="none" id="CsvExporter-to-Book" style="stroke:#181818;stroke-width:1;"/><polygon fill="#181818" points="2541.15,776.64,2541.8184,766.8139,2539.4341,771.9437,2534.3043,769.5593,2541.15,776.64" style="stroke:#181818;stroke-width:1;"/></g><!--link CsvExporter to Prestito--><g class="link" data-entity-1="CsvExporter" data-entity-2="Prestito" data-source-line="163" data-uid="lnk88" id="link_CsvExporter_Prestito"><path codeLine="163" d="M1500.92,673.12 C1506.67,674.19 1512.44,675.17 1518,676 C1670.28,698.63 1709.48,695.45 1863,707 C1877.65,708.1 1982.06,708.05 1995,715 C2020.21,728.54 2035.0246,752.9404 2043.8046,771.2404" fill="none" id="CsvExporter-to-Prestito" style="stroke:#181818;stroke-width:1;"/><polygon fill="#181818" points="2046.4,776.65,2046.1133,766.8053,2044.2371,772.142,2038.9005,770.2659,2046.4,776.65" style="stroke:#181818;stroke-width:1;"/></g><!--link CsvExporter to Utente--><g class="link" data-entity-1="CsvExporter" data-entity-2="Utente" data-source-line="164" data-uid="lnk89" id="link_CsvExporter_Utente"><path codeLine="164" d="M1500.9,673.22 C1506.66,674.27 1512.44,675.22 1518,676 C1706.44,702.35 1755.07,695.5 1945,707 C1963.32,708.11 2093.93,706.14 2110,715 C2134.45,728.48 2147.9668,752.795 2155.8168,771.115" fill="none" id="CsvExporter-to-Utente" style="stroke:#181818;stroke-width:1;"/><polygon fill="#181818" points="2158.18,776.63,2158.312,766.782,2156.2107,772.0341,2150.9586,769.9329,2158.18,776.63" style="stroke:#181818;stroke-width:1;"/></g><!--link CsvImporter to BookBean--><g class="link" data-entity-1="CsvImporter" data-entity-2="BookBean" data-source-line="166" data-uid="lnk90" id="link_CsvImporter_BookBean"><path codeLine="166" d="M1356.49,673.34 C1362.37,674.38 1368.3,675.3 1374,676 C1377.42,676.42 2362.9,713.49 2366,715 C2392.88,728.13 2409.9229,752.8424 2420.2229,771.2724" fill="none" id="CsvImporter-to-BookBean" style="stroke:#181818;stroke-width:1;"/><polygon fill="#181818" points="2423.15,776.51,2422.251,766.7023,2420.7107,772.1454,2415.2676,770.6051,2423.15,776.51" style="stroke:#181818;stroke-width:1;"/></g><!--link CsvImporter to UtenteBean--><g class="link" data-entity-1="CsvImporter" data-entity-2="UtenteBean" data-source-line="167" data-uid="lnk91" id="link_CsvImporter_UtenteBean"><path codeLine="167" d="M1356.52,673.09 C1362.4,674.18 1368.31,675.18 1374,676 C1550.77,701.62 1606.52,652.9 1774,715 C1819.94,732.03 1864.8152,756.4605 1894.1952,773.5705" fill="none" id="CsvImporter-to-UtenteBean" style="stroke:#181818;stroke-width:1;"/><polygon fill="#181818" points="1899.38,776.59,1893.6157,768.6042,1895.0593,774.0738,1889.5897,775.5173,1899.38,776.59" style="stroke:#181818;stroke-width:1;"/></g><!--SRC=[bLR1Rjim3BtxAuGTjbFNdGTiW9kucu4qAModm7PZNAKJQbk690ThjltxA3ks9KLfxPo2Hz9yZw98_MAFbD2oLY-afEME2Xd8PrRL8A0aUG5IXae9jciKZNDUfUn8oIV3fORy6PvegbuAIWJD5LHF1Gs23-JBvHzQoIhy4IMVoJP-m_MKWBpRnk_8du1qfCWDsnMCAvf3MDS3cYeGggcN30h-vA89bKsX1dJ1AqKhTGSLVbu4_wPplWqNuJAQHPtSGWwFr5ImPHqs9_DYiywIpMeL9LDJQvM25mKLLlKuVnuj0tmlg5HCSOzfgsj53SCCrccKFCIBQ2hbb8e3owrQuHctn_LRMH9EdcVyNRmZtwCpc2ytTs6ydafyoKjWbLldCtOEhS3olg5GdKLOO1VLGZEKt4T96gTPj9v-3lSu39Z4RFrPCCmhzf3Jbkaot5XOJzR5ExuQ7IGiWMFlAovUHcXdW0OwPkeHEq-FZbbc52LUtoPXcYNRHRPD8d9D5iacJQyMsooBrz-crYckzWAa4ask6c6rxH8Kx43gQxDdupmA6_NBRT6KIibuvNOvDZxgtLEXJq6EXOaEAFUcaUCqauVeTys5CkuiOd5vmgPK9ObMuSzuiuudZ6Lh_fAhgw_sx2MVIScn9X3OiE7OZMDqxCwpOHARvH4K8t0uC1vuKjZrnD2y_TC88CiRZxzTFUqFWkL0wXDufBwWyNGm0XhTM3ge_KC9uBhnYBUE3-DOnOuecHsFe5agrCY9xBoeNrlV_XZDbMAqecH_GdHVU-MD2ND1hKmeuCWyGVtQwKCmHSwmhlh8pxtj9UdemhLM2rRbh0QzyXrV9nch3Xoho6igu8X5OBgI1HPMiGFrnVOjhiiXjHwK1-MEGQaFn1TXt04CekrViaWVBlZsTqEJAmVVMTVaz1BGtvkwcOUIQ1RE7hPidcLisSysyYpc8r_DVjg6jjaE0lfHTaxOqj6xkRmDCRtBB2Kdxbf6jwwlZLrt7Jr4wooU8Ao_yhsgzifvy7Rn-Wndu32Z0wS4Lbbq7fzzN6YlHRTiNdFm6bkwbvDwJQCQwwmShfTiBSzBHezXp3Qd5S9jzfsynuv8KmJUQcTpqDiJ-Cmq2dGjpjwUHHU_foT8jab-8EluxduLtM6tTkOtlcIi2xDZ7TXiCiTaFClCjnVv-F6lLOhX2TPPXaJcEwmpMSd61rbdDDBD6bCuaL_tDuV-qDikEDm6rz0_mSrrODrqrs2qyty0]--></g></svg>